<?xml version="1.0" encoding="iso-8859-1"?>
<!-- Generator: Adobe Illustrator 23.0.3, SVG Export Plug-In . SVG Version: 6.00 Build 0)  -->
<svg version="1.1" xmlns="http://www.w3.org/2000/svg" xmlns:xlink="http://www.w3.org/1999/xlink" x="0px" y="0px"
	 viewBox="0 0 64 64" style="enable-background:new 0 0 64 64;" xml:space="preserve">
<g id="Layer_2" style="display:none;">
	<circle style="display:inline;fill:none;stroke:#E4E4E4;stroke-width:2;stroke-miterlimit:10;" cx="32" cy="32" r="25"/>
	
		<rect x="10" y="10" style="display:inline;fill:none;stroke:#CACACA;stroke-width:2;stroke-miterlimit:10;" width="44" height="44"/>
</g>
<g id="Layer_1">
	<linearGradient id="SVGID_1_" gradientUnits="userSpaceOnUse" x1="21" y1="39.5532" x2="21" y2="45.0745">
		<stop  offset="0" style="stop-color:#6DC7FF"/>
		<stop  offset="1" style="stop-color:#E6ABFF"/>
	</linearGradient>
	<circle style="fill:url(#SVGID_1_);" cx="21" cy="43" r="4"/>
	<linearGradient id="SVGID_2_" gradientUnits="userSpaceOnUse" x1="43" y1="39.5532" x2="43" y2="45.0745">
		<stop  offset="0" style="stop-color:#6DC7FF"/>
		<stop  offset="1" style="stop-color:#E6ABFF"/>
	</linearGradient>
	<circle style="fill:url(#SVGID_2_);" cx="43" cy="43" r="4"/>
	<g>
		<linearGradient id="SVGID_3_" gradientUnits="userSpaceOnUse" x1="18" y1="12.1064" x2="18" y2="50.1314">
			<stop  offset="0" style="stop-color:#1A6DFF"/>
			<stop  offset="1" style="stop-color:#C822FF"/>
		</linearGradient>
		<path style="fill:url(#SVGID_3_);" d="M17,16h-7v7c0,4.963,4.038,9,9,9h7v-7C26,20.037,21.962,16,17,16z M24,30h-5
			c-2.785,0-5.189-1.639-6.315-4H17v-2h-4.92C12.033,23.672,12,23.34,12,23v-1h3v-2h-3v-2h5c3.86,0,7,3.141,7,7V30z"/>
		<linearGradient id="SVGID_4_" gradientUnits="userSpaceOnUse" x1="32" y1="12.1064" x2="32" y2="50.1314">
			<stop  offset="0" style="stop-color:#1A6DFF"/>
			<stop  offset="1" style="stop-color:#C822FF"/>
		</linearGradient>
		<path style="fill:url(#SVGID_4_);" d="M57,12H47c-5.497,0-10.197,3.435-12.095,8.267c-0.464-0.493-1.053-0.858-1.715-1.066
			c1.096-2.625,2.894-4.873,5.253-6.524l-1.147-1.639c-2.28,1.597-4.097,3.688-5.355,6.115c-1.225-2.353-2.982-4.387-5.177-5.964
			l-1.167,1.623c2.289,1.646,4.036,3.855,5.107,6.422c-0.619,0.214-1.169,0.566-1.609,1.033C27.197,15.435,22.497,12,17,12H7
			c-0.552,0-1,0.447-1,1v10c0,6.092,4.217,11.204,9.882,12.606C13.539,37.233,12,39.938,12,43c0,4.963,4.038,9,9,9s9-4.037,9-9
			v-2.556C30.591,40.788,31.268,41,32,41s1.409-0.212,2-0.556V43c0,4.963,4.038,9,9,9s9-4.037,9-9c0-3.062-1.539-5.767-3.882-7.394
			C53.783,34.204,58,29.092,58,23V13C58,12.447,57.552,12,57,12z M34,29h-4v-3h4V29z M34,31v3h-4v-3H34z M30,23c0-1.103,0.897-2,2-2
			s2,0.897,2,2v1h-4V23z M19,34c-6.065,0-11-4.935-11-11v-9h9c6.065,0,11,4.935,11,11v9h-7H19z M28,43c0,3.859-3.14,7-7,7
			s-7-3.141-7-7s3.14-7,7-7h7v1V43z M32,39c-1.103,0-2-0.897-2-2v-1h4v1C34,38.103,33.103,39,32,39z M50,43c0,3.859-3.14,7-7,7
			s-7-3.141-7-7v-6v-1h7C46.86,36,50,39.141,50,43z M56,23c0,6.065-4.935,11-11,11h-2h-7v-9c0-6.065,4.935-11,11-11h9V23z"/>
		<linearGradient id="SVGID_5_" gradientUnits="userSpaceOnUse" x1="46" y1="12.1064" x2="46" y2="50.1314">
			<stop  offset="0" style="stop-color:#1A6DFF"/>
			<stop  offset="1" style="stop-color:#C822FF"/>
		</linearGradient>
		<path style="fill:url(#SVGID_5_);" d="M38,25v7h7c4.962,0,9-4.037,9-9v-7h-7C42.038,16,38,20.037,38,25z M52,20h-3v2h3v1
			c0,0.34-0.033,0.672-0.08,1H47v2h4.315c-1.126,2.361-3.53,4-6.315,4h-5v-5c0-3.859,3.14-7,7-7h5V20z"/>
		<linearGradient id="SVGID_6_" gradientUnits="userSpaceOnUse" x1="21" y1="12.1064" x2="21" y2="50.1314">
			<stop  offset="0" style="stop-color:#1A6DFF"/>
			<stop  offset="1" style="stop-color:#C822FF"/>
		</linearGradient>
		<path style="fill:url(#SVGID_6_);" d="M21,38c-2.757,0-5,2.243-5,5s2.243,5,5,5s5-2.243,5-5S23.757,38,21,38z M21,46
			c-1.654,0-3-1.346-3-3s1.346-3,3-3s3,1.346,3,3S22.654,46,21,46z"/>
		<linearGradient id="SVGID_7_" gradientUnits="userSpaceOnUse" x1="43" y1="12.1064" x2="43" y2="50.1314">
			<stop  offset="0" style="stop-color:#1A6DFF"/>
			<stop  offset="1" style="stop-color:#C822FF"/>
		</linearGradient>
		<path style="fill:url(#SVGID_7_);" d="M43,38c-2.757,0-5,2.243-5,5s2.243,5,5,5s5-2.243,5-5S45.757,38,43,38z M43,46
			c-1.654,0-3-1.346-3-3s1.346-3,3-3s3,1.346,3,3S44.654,46,43,46z"/>
	</g>
</g>
</svg>