<?xml version='1.0' encoding='utf-8'?>
<svg xmlns="http://www.w3.org/2000/svg" enable-background="new 0 0 1008 1351" version="1.1" viewBox="0 0 1008 1351"> <path d="m981.97 464c-2.3799-3.6-6.27-5.7-9.25-8.7-4.78-4.77-11.12-7.55-17.5-9.44-6.5699-1.84-12.05-6.1-18.13-9.01-5.79-2.74-11.38-5.86-16.9-9.09-3.1899-1.88-6.5499-3.6899-10.28-4.14-2.97-0.38-5.8499 0.8099-8.7999 0.71-8.0299-0.8099-16.05 0.62-24.08 0.65-12.88 0.48-25.71-0.88-38.48-2.34-21.81-2.64-43.59-5.81-65.54-7.06-11.38-0.61-22.79-1.0699-34.06-2.86-4.46-0.98-8.77 0.72-13.08 1.5601-2.7799 0.61-5.1801-1.4401-7.8199-1.8601-3 0.3301-6.0601 1.4301-9.04 0.4001-4.55-1.3501-9.22-2.2301-13.96-2.53-3.73 0.08-6.48-2.77-9.91-3.7101-4.29-1.4301-8.8199-0.47-13.22-0.7699-5.24-0.4301-10.45-1.1501-15.63-2.03-0.95-3.04-2.1101-6-3.55-8.8301 3.41 0.66 6.89 0.8601 10.36 0.8 3.2201-3.28 3.55-8.21 1.41-12.16-2.5701-6.83-10.42-8.21-16.37-10.74-0.9301-1.9-1.79-3.83-2.6-5.77 9.1-0.2999 19.28 1.1801 27.16-4.4301 1.76-6.1499-3.1399-11.75-8.6-13.75-5.08-1.9099-10.38-3.1199-15.68-4.24 1.1301-2.4399 4.1101-3.51 5.3301-5.97 5.05-8.6199 6.78-18.8 7.1599-28.66 0.3-6.8501-3.3599-13.24-9.0299-16.94l-0.15 0.02c-4.74-3.74-10.33-6.4401-16.09-8.2101l0.1801-0.1599c-4.3401-1.24-8.01-3.9299-11.89-6.13-18.39-9.16-38.92-11.92-58.83-15.91-3.96-0.99-8.0299-1.45-12.07-2.02-4.9399-0.85-10.71-2.25-15.11 0.92 2.7301 0.86 5.77 2.2101 8.6401 1.3099 1.4399 0.2201 2.8899 0.4102 4.3499 0.5601-0.1499 0.45-0.4399 1.3301-0.5798 1.77 4.3499 1.97 8.74 4.25 13.6 4.52 6.1301 0.46 12.28 0.1899 18.42 0.3101 3.4701 0.9399 6.87 2.0999 10.22 3.3999-4.75 1.04-9.6602 0.92-14.45 0.28-3.41-0.78-6.63-2.38-10.17-2.5801 1.5701 1.98 3.76 3.26 5.97 4.42-1.5599 1.0699-3.3599 1.6801-5.1599 2.17-4.1899-0.41-8.4-0.76-12.6-0.96-2.0199-0.4301-4.0798-0.49-6.1199-0.3401-3.8301 0.38-7.42-1.28-11.18-1.6499-10.39-1.3201-20.9-2-31.07-4.67-6.66-1.7301-13.35-3.76-20.23-4.3199 1.79 1.6699 4.24 2.1599 6.49 2.9299-2.4 0.02-4.79 0.0701-7.1801 0.2 1.03 2.4301 3.66 3.22 5.8 4.3701 2.71 1.4099 5.62 2.6199 8.7599 2.4099 4.1201 1.55 8.5801 2.64 13.02 2.22 0.91 0.4401 1.8601 0.8101 2.8401 1.0901-2.26 0.47-4.54 0.8099-6.78 1.3099-5.75 0.37-11.4 1.9601-17.2 1.79-1.64-0.89-3.54-0.85-5.3401-0.87-5.29 0.01-10.68-0.26-15.84 1.1899 0.76 0.6101 1.51 1.21 2.27 1.8301 0.0699 0.35 0.1901 1.0499 0.25 1.3999 6.48 2.51 13.51 1.76 20.28 1.4301 2.5701-0.4 5.6301 0.11 7.6401-1.9301 10.75-1.21 21.54-4.22 32.51-3.9199 4.2899-0.03 8.22 1.9399 12.4 2.6299 1.1001 0.5801 2.3 1 3.48 1.4601-6.84-0.0499-13.11 3.8199-20 2.9401-8.11 0.0599-16.25-1.16-24.32-0.1501-9.2001-0.1799-18.42 1.53-27.62 0.6201-4.0801-1.3701-8.39-2.21-12.66-2.63-5.09-2.8101-11.45-2.65-16.98-4.54-4.0699-1.9301-6.37 3-9.13 5.03 2.0901 2.2 4.8401 3.64 6.95 5.83-1.3599-0.1-2.72-0.23-4.0699-0.35 0.84 1.15 1.6901 2.2999 2.5499 3.4601-0.4399 0.1899-1.3199 0.5599-1.7599 0.74-0.55 0.7999-1.12 1.5699-1.6801 2.3599 1.46 1.1501 2.9301 2.3 4.41 3.4301-0.8099 1.5599-1.7001 3.09-2.62 4.58-10.26-3.6499-21.23-3.08-31.92-2.7999-5.8199-11.15-9.91-23.09-14.02-34.94-2.04-5.09 0.1299-10.63-1.3401-15.81-0.84-3.52-3.2-6.5-3.72-10.1-1.28-8.6001-3.02-17.13-5.4299-25.49-1.03-3.77-2.3101-7.5-2.79-11.4-0.75-5.3-0.3501-10.7-1.3301-15.98-3.48-16.23-6.87-32.68-14.01-47.79-10.76-22.2-24.15-43.23-32.03-66.74-1.5599-3.9-2.26-8.4301-5.3899-11.47-2.29-2.2699-3.4-5.4199-5.6801-7.6899-8.09-8.59-20.08-11.09-30.74-15-8.22-3.51-16.38-7.23-24.77-10.27-7.5599-5.0599-15.62-9.8799-24.72-11.46-5.76-0.9399-11.27-3.1799-17.16-3.23-2.29 0.1699-5.29-0.1799-6.9 1.75-0.03 4.4199 3.83 7.78 7.99 8.39 5.13 0.7699 9.88 2.8099 14.76 4.46 4.28 1.1801 7.29 4.7101 11.18 6.67-14.76 0.1599-29.76 2.7-43.19 9.03-1.64 1.0999-4.32 1.98-4.39 4.28 1.56 2.98 5.18 5.0199 8.56 4.0798 4.84-0.4399 9.06-3.6099 14.02-3.23 5.09 0.27 10.18-2.9399 15.11-0.74 2.87 1.0701 5.9501 0.3501 8.92 0.3101-9.0601 2.0601-17.97 4.71-27.05 6.64-3.88 1.0199-8.25 1.7799-11.05 4.9-1.59 1.1899 0.13 3.02 1.24 3.76 3.66 3.02 8.7 1.75 12.92 0.9299 5.89-1.63 12.02-1.96 18.01-3.11 4.42-0.8199 8.9701-0.4401 13.41-1.15 0.3201 0.23 0.97 0.67 1.3 0.89-2.29-0.0499-4.5601 0.2001-6.76 0.8099-5.8098 1.5702-11.93 0.9702-17.81 2.1002-2.61 1.29-1.43 5.55 0.76 6.77 4.66 2.47 10.03 1 15.03 1.1799 5.3199 0.12 10.63-0.75 15.94-0.1599 2.04 0.72 3.63 2.6299 5.92 2.6199 4.65 0.0801 9.38 0.01 13.82 1.6201 5.71 1.0999 11.21 4.0399 17.16 3.1699 0.64 4.25 2.0699 8.3101 3.02 12.49 4.2799 16.71 5.09 33.99 7.1901 51.04 2.1199 17.25 6.24 34.25 12.37 50.52 2.4401 6.05 3.8301 12.42 5.26 18.76 0.6801 3.6199 3.8801 6.1299 4.4301 9.76 0.4501 2.3199 1.1 4.59 1.8099 6.84 2.1001 6.5399 2.01 13.48 2.8201 20.25 0.96 12.31 2.1799 24.59 3.26 36.89 0.1899 6.96 0.87 14.02-0.22 20.93-2.53 6.9399-5.1201 13.88-7.02 21.04-7.6299 0.04-15.3-0.3501-22.86 0.8999h-6e-4c-6.5 0.1501-12.9 2.1401-18.3 5.75-11.38 6.9303-18.79 19.31-20.8 32.35-1.6401 7.85-0.9102 16.19-4.1301 23.68-2.51 6.4301-5.26 12.78-7.7899 19.21-4 10.34-6.62 21.14-10.45 31.54-3.36 9.1901-6.6799 18.68-6.59 28.6 0 5.06-1.59 9.92-3.38 14.6-3.97 10.64-6.66 21.7-10.42 32.42-4.21 13.06-8.48 26.23-9.9 39.95-0.7 4.87-0.51 9.98-2.52 14.57-1.55 3.67-2.64 7.49-3.5 11.37-1.1201 5.87-5.92 10.19-7.08 16.05-0.78 3.66-1.36 7.43-3.23 10.74-4.19 7.74-4.39 16.75-5.03 25.32-0.22 4.37-1.91 8.56-1.68 12.97 0.28 6.9 0.68 13.79 0.97 20.69-11.74 8.17-23.78 15.91-35.49 24.12-32.74 22.8-63.56 48.18-94.61 73.18-13.34 10.56-25.71 22.3-37.04 34.97-3.77 5.34-8.1201 10.43-10.24 16.71-5.89 11.84-6.6 25.75-3.79 38.51 3.77 14.44 16.32 24.14 28.66 31.23 6.75 4.18 14.63 5.82 22.42 6.64 18.43 3.66 36.46 9.1 54.9 12.75 6.95 1.15 13.31 4.28 20 6.33 15.03 4.86 30.26 9.2 45 14.94 16.56 6.41 32.57 14.16 48.94 21.04 13.17 6.14 26.71 11.54 39.38 18.7 9.05 5.15 18.41 9.86 26.87 15.99 7.9701 5.68 16.24 10.95 23.92 17.03 5.35 4.8 11.17 9.04 17.03 13.21 7.46 5.3 15.63 9.5099 23.16 14.71 8.16 5.73 14.48 13.55 21.05 20.95 3.09 3.48 5.6799 7.5901 6.4399 12.26 1.3101 8.39 2.8201 16.8 5.5801 24.86 1.62 4.12-0.16 8.89 1.96 12.88 1.39 1.78 3.3 3.99 5.8501 3.3101 3.2999-0.4501 5.1299-3.66 6.6399-6.28 1.12-2.45 4.04-3.5 4.92-6.1 0.73-1.79 0.1801-3.73 0.14-5.5601 3.21-3.52 2.5699-8.74 0.22-12.53 5.59-0.3401 6.03-7.16 3.98-11.13 1.97-1.29 3.37-3.2401 3.99-5.51 1.0601-2.9801-0.6599-5.92-0.95-8.87 0.3999-2.4 0.96-4.78 1.34-7.17 15.68 21.63 27.75 45.54 41.23 68.53 6.91 12.4 14.8 24.25 20.95 37.07 4.77 9.91 10.04 19.61 14 29.89 3.5699 9.05 7.71 17.89 12.69 26.26 2.7 4.72 4.72 9.85 7.98 14.25 5.1101 7.16 10.02 14.49 15.84 21.1 5.48 6.52 12.12 12.18 16.2 19.78 4.05 7.35 7.8899 14.82 11.81 22.24 3.99 8.6 7.21 17.6 9.0499 26.92 0.7001 3.7999 3.39 6.7999 4.38 10.49 0.6799 4.1-0.04 8.52 1.8 12.4 2.3599 3.0599 7.25 3.36 9.6799 0.2 1.9199-2.72 3.86-5.73 4.3501-9.0701-0.4401-4.4099 0.3899-9.1299-1.8601-13.15 2.91-2.9 2.73-6.9 0.99-10.35 0.88-1.7 1.89-3.3899 2.0901-5.3099 1.0599-11.32 2.2999-22.92-0.3901-34.1-2.48-11.64-5.8298-23.14-6.97-35.01-0.49-10.38 3.3201-20.23 5.42-30.23 1.86-9.65 2.0399-19.92-1.14-29.3-3.6-6.99-12.08-9.9299-19.5-10.18-6.34 1.1499-12.37 4.37-18.98 3.7599-4.1-1.47-5.79-5.85-7.5901-9.4199-3.0599-6.8201-6.99-13.2-10.03-20.03-9.38-19.87-14.51-41.35-22.09-61.91-4.51-13.11-10.22-25.96-12.12-39.81-1.4999-11.88-6.7599-22.76-11.59-33.56-5.74-11.13-12.33-21.9-20.53-31.39-8.63-10.39-19.31-18.78-28.71-28.42-11.03-10.49-19.96-23.34-25.26-37.64-3.23-6.91-3.9001-14.57-5.6501-21.9-5.3398-21.4-10.72-42.88-18.97-63.38-3.1699-9.67-7.73-18.78-12.07-27.95-9.15-18.39-17.75-37.05-26.4-55.68 8.63-14.28 20.25-27.32 24.29-43.9 5.52-20.01 4.63-41.27 1.14-61.56-3.15-16.56-6.9801-33.02-11.92-49.14-1.8101-8.07-5.97-15.89-4.5601-24.39 2.3-14.62 13.19-25.94 24.56-34.51 16.55-12.04 34.75-21.81 53.87-29.1 5.29-2.17 10.86-3.62 16.07-6.01 9.9001-4.46 19.58-9.5 29.87-13.03 7.35-2.32 15.1-2.6 22.69-3.47 9.37 0.34 18.69-0.69 28-1.57 10.14 1.05 19.64 5.66 29.95 5.57 10.32 1.65 20.81 1.23 31.13-0.14 4.3699-0.8 8.48-3.44 13.06-2.67 15.85 1.87 31.78 2.98 47.74 3.51 16.34 0.79 32.85-0.67 49.03 2.29 12.36 2.12 24.78 3.86 37.28 4.91 11.61 0.51 23.25 0.58 34.87 0.07 31.98-3.7 63.72-9.75 95.9-11.56 5.5901-0.44 11.32-0.11 16.77-1.67 1.21 2.21 2.46 4.49 4.47 6.09 4.25 3.43 8.21 7.2 12.49 10.59 2.91 2.21 4.24 5.74 6.6201 8.41 2.0699 2.45 5.5499 2.91 7.72 5.23 3.12 3.23 6.03 6.72 8.1899 10.69 1.96 3.7 4.89 6.8 6.71 10.59 1.8901 3.47 4.9301 7.13 9.2101 7.27 1.35 0.18 3.87 0.57 3.8199-1.57-0.05-4.64-4.3099-7.84-5.53-12.12-0.3899-5.57 0.48-11.26-1.0499-16.72 0.4501 0.69 0.91 1.37 1.38 2.07-0.26 4.3799-0.9199 11.42 4.78 12.49 1.98 0.99 3.6299-1.13 3.3799-2.99 2.02-0.8701 1.5-4.64 0.7201-6.4 1.58-5.63 0.16-11.71-0.77-17.39-0.7799-6.07-4.47-11.12-8.0499-15.86 7.21 1.32 13.21 5.81 18.72 10.39 2.35 2.09 5.58 1.72 8.48 1.51 1.9-3.3601-0.11-7.0601-2.0499-9.8901zm-500.04-180.57h2e-4c1.29 0.0731 2.5898 0.0942 3.8938 0.0964-1.3041-0.0021-2.6039-0.0231-3.894-0.0964zm-153.65 648.31c-14.16-6.68-27.89-14.3-40.75-23.24-15.65-10.71-30.98-21.9-46.99-32.08-7.06-4.44-13.72-9.47-19.84-15.15-14.41-13.19-32.49-21.39-50.52-28.36-3.75-1.65-8.14-1.89-11.52-4.27 9.3799-3.37 18.72-6.91 27.72-11.21 7.17-4 14.97-6.75 22.04-10.96 9.9901-5.05 19.2-11.45 28.52-17.62 4.52-2.78 8.97-5.68 13.3-8.77 11.13 18.89 22.66 37.55 35 55.67 22.48 33.76 51.38 63.47 68.39 100.68-8.7099 3.27-17.66-0.68-25.35-4.69zm141.58-634.45c1.1549-0.0972 2.3062-0.2639 3.4443-0.4633-1.138 0.1994-2.2893 0.3661-3.4443 0.4633zm14.144 13.107h1e-4c0.7599 0.26 2.2699 0.78 3.0299 1.03-0.7602-0.25-2.27-0.77-3.03-1.03zm3.4568-18.533c0.6621-0.0942 1.3236-0.1924 1.9829-0.3065h2e-4c-0.6594 0.1141-1.321 0.2122-1.9831 0.3065zm175.57 65.403c-3.54 2.54-7.41 4.6399-11.62 5.8099-1.6599-3.47-6.0099-6.2899-5.0099-10.49 5.65 1.1401 11.14 2.9501 16.63 4.6801zm-5.15-47.81c0.1801 5.99-1.0499 11.95-2.7899 17.65-1.2301 4.0599-4.1802 7.1901-7.28 9.92-0.1501-5.6001 0.78-11.2 0.0499-16.79-1.0199-8.78-2.48-17.67-6.11-25.79 5.7 4.63 12.37 8.42 16.13 15.01zm-36.39-21.69c5.51 0.84 10.53 3.33 15.77 5.08 4.77 9.83 6.6899 20.91 7.36 31.75-5.27-5.27-5.5699-13.16-9.86-19.04-1.9-3.3201-4.48-6.1801-7.1799-8.8501-2.4501-2.68-4.1402-5.91-6.0901-8.94zm6.89 13.31 1.37 0.51c1.61 1.78 2.9099 3.83 4.1899 5.86 0.97 1.9401 1.9501 3.88 2.9001 5.8401-3.24-3.7701-6.72-7.4601-8.46-12.21zm11.82 76.76c0.8601-1.0199 1.72-2.0399 2.6001-3.0399 1.2 2.8199 2.24 5.7 3.1699 8.6299-1.3999-0.3099-2.79-0.59-4.1899-0.84-0.4801-1.6-1.0201-3.1801-1.5801-4.75zm3.1101 15.69c1.3599-0.01 2.9299 2.1799 2.3999 3.5599-1.85 1.1701-3.16-2.18-2.3999-3.5599zm1.3598 5.96c0.6201-0.49 1.8601-1.45 2.4801-1.9299 1.16 1.58 2.2899 3.1899 3.4 4.83-2.17-0.4902-4.85-0.5501-5.8801-2.9001zm5.6402-20.23c2.6499 1.45 5.22 3.0601 7.58 4.96-1.9601 0-3.9301 0.1799-5.86-0.1799-0.7401-1.5301-1.22-3.1701-1.72-4.7801z" enable-background="new "/> <path d="m730.43 1170.1c0.2201 1.33 0.9301 1.54 2.1301 0.64-0.2399-1.36-0.95-1.58-2.1301-0.64z" enable-background="new "/> </svg>