<?xml version="1.0" encoding="iso-8859-1"?>
<!-- Generator: Adobe Illustrator 23.0.3, SVG Export Plug-In . SVG Version: 6.00 Build 0)  -->
<svg version="1.1" id="Layer_1" xmlns="http://www.w3.org/2000/svg" xmlns:xlink="http://www.w3.org/1999/xlink" x="0px" y="0px"
	 viewBox="0 0 64 64" style="enable-background:new 0 0 64 64;" xml:space="preserve">
<linearGradient id="SVGID_1_" gradientUnits="userSpaceOnUse" x1="50.5611" y1="41.1809" x2="50.5611" y2="45.4895">
	<stop  offset="0" style="stop-color:#6DC7FF"/>
	<stop  offset="1" style="stop-color:#E6ABFF"/>
</linearGradient>
<path style="fill:url(#SVGID_1_);" d="M52.788,43.29l-3.098-2.957c-0.624-0.596-1.658-0.153-1.658,0.71v5.914
	c0,0.863,1.034,1.306,1.658,0.71l3.098-2.957C53.192,44.323,53.192,43.677,52.788,43.29z"/>
<g>
	<linearGradient id="SVGID_2_" gradientUnits="userSpaceOnUse" x1="32" y1="9.383" x2="32" y2="53.5493">
		<stop  offset="0" style="stop-color:#1A6DFF"/>
		<stop  offset="1" style="stop-color:#C822FF"/>
	</linearGradient>
	<path style="fill:url(#SVGID_2_);" d="M52,34.197V21.162C52,18.867,50.133,17,47.838,17H46v-3.815c0-2.298-1.869-4.167-4.167-4.167
		H10.167C7.869,9.018,6,10.887,6,13.185v23.75c0,2.297,1.869,4.166,4.167,4.166H12v3.737C12,47.133,13.867,49,16.162,49h21.061
		c1.828,3.547,5.52,5.982,9.777,5.982c6.065,0,11-4.935,11-11C58,39.718,55.556,36.021,52,34.197z M47,32.982
		c-1.372,0-2.682,0.264-3.894,0.725l-2.622-2.218L50,23.437v9.972C49.045,33.137,48.041,32.982,47,32.982z M49.968,20.844
		l-16.568,14.02c-0.811,0.688-1.988,0.688-2.799,0L14.032,20.844C14.187,19.803,15.079,19,16.162,19h31.676
		C48.921,19,49.812,19.803,49.968,20.844z M14,23.438l9.516,8.052L14,39.541V23.438z M39.879,17L44,13.513V17H39.879z
		 M41.833,11.018c0.535,0,1.02,0.202,1.398,0.525l-6.378,5.397L36.905,17H16.162c-0.289,0-0.571,0.03-0.843,0.086l-6.551-5.543
		c0.378-0.323,0.863-0.526,1.398-0.526H41.833z M10.167,39.101C8.972,39.101,8,38.129,8,36.935V13.514l5.393,4.564
		C12.545,18.84,12,19.934,12,21.162v17.938H10.167z M16.162,47C14.97,47,14,46.03,14,44.838v-2.729l0.026,0.031l11.039-9.34
		l4.244,3.591c0.78,0.659,1.736,0.989,2.691,0.989s1.912-0.33,2.691-0.989l4.244-3.591l2.222,1.88
		c-2.83,1.784-4.795,4.815-5.107,8.321H24v2h12.052c0.063,0.688,0.195,1.355,0.379,2H16.162z M47,52.982c-4.962,0-9-4.037-9-9
		s4.038-9,9-9s9,4.037,9,9S51.962,52.982,47,52.982z"/>
	<linearGradient id="SVGID_3_" gradientUnits="userSpaceOnUse" x1="47.5613" y1="9.383" x2="47.5613" y2="53.5493">
		<stop  offset="0" style="stop-color:#1A6DFF"/>
		<stop  offset="1" style="stop-color:#C822FF"/>
	</linearGradient>
	<path style="fill:url(#SVGID_3_);" d="M53.479,42.567C53.478,42.566,53.478,42.566,53.479,42.567l-3.099-2.958
		c-0.575-0.548-1.419-0.697-2.147-0.388c-0.73,0.313-1.202,1.027-1.202,1.821V43h-6v2h6v1.957c0,0.794,0.472,1.509,1.202,1.821
		c0.251,0.107,0.517,0.16,0.78,0.16c0.499,0,0.991-0.189,1.367-0.548l3.099-2.958c0.389-0.372,0.613-0.894,0.613-1.433
		S53.868,42.939,53.479,42.567z M49.031,46.957l-0.032-5.9L52.083,44L49.031,46.957z"/>
</g>
<linearGradient id="SVGID_4_" gradientUnits="userSpaceOnUse" x1="31.919" y1="20.9574" x2="31.919" y2="31.7743">
	<stop  offset="0" style="stop-color:#6DC7FF"/>
	<stop  offset="1" style="stop-color:#E6ABFF"/>
</linearGradient>
<path style="fill:url(#SVGID_4_);" d="M43.939,20.97h-24.04c-0.934,0-1.358,1.166-0.643,1.766l11.458,9.572
	c0.744,0.618,1.825,0.615,2.565-0.008l11.307-9.569C45.296,22.129,44.87,20.97,43.939,20.97z"/>
</svg>