<?xml version="1.0" encoding="UTF-8" standalone="no"?>
<!-- Created with Inkscape (http://www.inkscape.org/) -->

<svg
   width="1080"
   height="1080"
   viewBox="0 0 1080 1080"
   version="1.1"
   id="svg1"
   xmlns="http://www.w3.org/2000/svg"
   xmlns:svg="http://www.w3.org/2000/svg">
  <defs
     id="defs1" />
  <g
     id="layer1">
    <path
       d="m -88.802819,271.02017 q 0,1.26953 -0.846355,2.3763 -0.813803,1.10677 -2.083335,2.14844 -1.236979,1.04167 -2.701824,2.01823 -1.464844,0.97656 -2.734376,1.98568 -1.23698,1.00911 -2.083335,2.05078 -0.813806,1.04167 -0.813806,2.21354 0,0.97656 1.367192,1.88802 1.367188,0.91146 3.938804,1.82292 2.571616,0.91146 6.217451,1.88802 3.645836,0.94401 8.20313,2.01823 2.278647,0.61849 2.278647,2.3112 0,0.65104 -0.325521,1.26953 -0.292969,0.61849 -0.813803,1.10678 -0.520833,0.45572 -1.204427,0.74869 -0.651042,0.29297 -1.334637,0.29297 -1.627605,0 -3.710939,-0.48828 -2.050782,-0.48828 -4.264325,-1.20443 -2.213543,-0.71614 -4.427086,-1.5625 -2.213543,-0.8789 -4.166669,-1.59505 -1.920577,-0.71615 -3.417967,-1.20443 -1.46485,-0.48828 -2.21355,-0.48828 -0.58593,0 -1.13932,0.55339 -0.52083,0.52083 -0.97656,1.46484 -0.42318,0.94401 -0.71615,2.2461 -0.29297,1.26953 -0.42318,2.79948 -0.16276,1.72526 -1.23698,2.57161 -1.04166,0.8138 -2.89713,0.8138 -1.92058,0 -2.21355,-1.79036 -0.48828,-2.73438 -1.20442,-5.56641 -0.6836,-2.83203 -1.52995,-5.66407 -0.8138,-2.83203 -1.79037,-5.59896 -0.94401,-2.76693 -1.98568,-5.30599 -0.26041,-0.55338 -0.39062,-1.00911 -0.0977,-0.48829 -0.0977,-0.97657 0,-0.42317 0.26042,-0.78125 0.26042,-0.39062 0.71615,-0.68359 0.45572,-0.29297 1.04166,-0.45573 0.61849,-0.16276 1.26953,-0.16276 1.33464,0 2.11589,0.55338 0.78125,0.55339 1.59505,1.66016 0.39063,0.52083 0.7487,1.39974 0.35808,0.84636 0.6836,1.82292 0.32552,0.97656 0.65104,1.98568 0.32552,0.97656 0.61849,1.79036 0.32552,0.78125 0.61849,1.30209 0.32552,0.48828 0.61849,0.48828 0.26042,0 0.42318,-0.22787 0.19531,-0.22786 0.45572,-0.68359 1.69271,-3.51563 3.71094,-6.41276 2.01823,-2.92969 4.13412,-4.98048 2.115888,-2.08333 4.231774,-3.22265 2.148439,-1.13933 4.101565,-1.13933 0.78125,0 1.464845,0.29297 0.683594,0.26042 1.171875,0.7487 0.520834,0.48828 0.813803,1.17188 0.292969,0.65104 0.292969,1.39974 z m 27.864597,2.34375 q 1.790366,0 3.450523,0.55338 1.660157,0.55339 2.929689,1.52995 1.269532,0.97656 2.01823,2.34375 0.781251,1.36719 0.781251,3.02735 0,0.68359 -0.325521,1.33463 -0.292969,0.61849 -0.813803,1.10678 -0.520833,0.45573 -1.204428,0.74869 -0.651042,0.26042 -1.367188,0.26042 -0.0651,0 -0.130208,0.0326 -0.03255,0 -0.09766,0 -0.0651,0.0326 -0.130208,0.0326 l 0.130208,2.60416 q 0.130209,4.65495 1.302084,6.80339 1.204428,2.14844 3.125002,2.14844 0.683594,0 1.204428,-0.13021 0.553386,-0.13021 1.009115,-0.29297 0.488282,-0.19531 0.911459,-0.32552 0.423177,-0.13021 0.846354,-0.13021 0.748699,0 1.302084,0.65105 0.585938,0.65104 0.585938,1.5625 0,0.91146 -0.716146,1.82291 -0.683594,0.91146 -1.822918,1.66016 -1.139323,0.71615 -2.571616,1.17188 -1.432292,0.45573 -2.897136,0.45573 -2.539064,0 -4.459638,-2.08334 -1.920574,-2.11588 -2.734377,-6.1849 -0.195312,-0.65104 -0.520833,-0.65104 -0.390626,0 -0.683594,0.39063 -3.222658,4.06901 -6.868494,6.11979 -3.645835,2.01823 -7.194014,2.01823 -1.660157,0 -2.994793,-0.48828 -1.334636,-0.48828 -2.278647,-1.36719 -0.911459,-0.91146 -1.432293,-2.18099 -0.488281,-1.30208 -0.488281,-2.89714 0,-2.24609 0.976563,-4.72005 1.009115,-2.47396 2.701824,-4.88282 1.692709,-2.40885 3.906252,-4.58984 2.246095,-2.18099 4.687503,-3.84115 2.473959,-1.66016 5.013023,-2.63672 2.539064,-0.97656 4.850263,-0.97656 z m -1.074219,11.26302 q 0.585938,-1.10677 1.074219,-1.59505 0.488282,-0.52083 1.399741,-0.68359 0.716146,-0.0977 0.716146,-0.45573 0,-0.26042 -0.195313,-0.55339 -0.61849,-0.84635 -1.302084,-1.46484 -0.683594,-0.65104 -1.822917,-0.65104 -1.23698,0 -2.766929,0.71614 -1.529949,0.71615 -3.125002,1.92058 -1.562501,1.17187 -3.092449,2.70182 -1.497397,1.4974 -2.669273,3.09245 -1.171875,1.59505 -1.888021,3.15755 -0.716147,1.5625 -0.716147,2.79948 0,1.10678 0.585938,1.72527 0.61849,0.61848 1.660157,0.61848 2.669273,0 5.826826,-2.83203 3.157554,-2.83203 6.315108,-8.4961 z m 31.217464,18.06642 q -1.953126,0 -3.906252,-0.94401 -1.953126,-0.97656 -3.743492,-2.63672 -1.790365,-1.66016 -3.320314,-3.90625 -1.529949,-2.27865 -2.669272,-4.88282 -1.139324,-2.63672 -1.790366,-5.5013 -0.651042,-2.86459 -0.651042,-5.72917 0,-2.21355 0.911459,-3.15756 0.911459,-0.97656 2.962241,-0.97656 2.571616,0 2.864585,2.11589 0.585938,4.49219 1.627605,8.10547 1.041667,3.61328 2.441407,6.15235 1.432293,2.53906 3.157554,3.90625 1.757814,1.36719 3.71094,1.36719 1.39974,0 2.63672,-0.6836 1.23698,-0.71614 2.148439,-1.98568 0.325521,-0.48828 0.423177,-0.94401 0.130208,-0.45573 0.195312,-1.04166 0.162761,-2.3112 0.358074,-4.52475 0.227864,-2.24609 0.423177,-4.49219 0.0651,-0.97656 0.260417,-1.59505 0.195312,-0.61849 0.585938,-0.97656 0.390625,-0.35807 1.009115,-0.48828 0.651042,-0.13021 1.627605,-0.13021 1.106771,0 1.888022,0.32552 0.78125,0.29297 1.269531,1.00911 0.488282,0.6836 0.683595,1.82292 0.227864,1.10677 0.227864,2.76693 0,1.43229 -0.227864,2.50651 -0.195313,1.04167 -0.488282,1.98568 -0.260417,0.91146 -0.520834,1.82292 -0.227864,0.87891 -0.292968,1.95312 -0.162761,2.70183 -0.292969,4.68751 -0.130209,1.95312 -0.227865,3.35286 -0.0651,1.39974 -0.130208,2.40886 -0.03255,1.00911 -0.06511,1.79036 -0.03255,0.81381 -0.03255,1.52995 0,0.71615 0,1.5625 0,1.52995 0.130209,3.32032 0.130208,1.82292 0.260416,3.48307 0.162761,1.66016 0.292969,2.92969 0.130209,1.26953 0.130209,1.75782 0,0.61849 -0.390625,1.17187 -0.390626,0.55339 -1.041668,0.97656 -0.651042,0.42318 -1.529948,0.65105 -0.878907,0.26041 -1.85547,0.26041 -0.846355,0 -1.367188,-0.58593 -0.488282,-0.55339 -0.553386,-1.4974 -0.09766,-1.23698 -0.162761,-3.02735 -0.0651,-1.75781 -0.130208,-3.77604 -0.0651,-1.98568 -0.09766,-4.06901 0,-2.05079 -0.03255,-3.84115 -0.03255,-1.75781 -0.03255,-3.09245 0,-1.33464 0,-1.92057 0,-0.58594 -0.130208,-0.81381 -0.130208,-0.26041 -0.488281,-0.26041 -0.195313,0 -0.520834,0.1302 -0.325521,0.0977 -0.748698,0.35808 -1.139324,0.68359 -2.3112,0.97656 -1.171875,0.29297 -2.473959,0.29297 z m 30.72918825,-27.73439 q 1.69270925,0 3.28776215,0.48828 1.595053,0.48828 2.7994807,1.33464 1.2369798,0.8138 1.9856781,1.88802 0.7486983,1.04167 0.7486983,2.14844 0,0.71614 -0.2929689,1.39974 -0.2929689,0.65104 -0.7812504,1.17187 -0.4882815,0.48829 -1.1067714,0.81381 -0.6184899,0.29297 -1.302084,0.29297 -0.7486983,0 -1.3671883,-0.55339 -0.6184899,-0.58594 -1.3346361,-1.26953 -0.6835941,-0.71615 -1.5625008,-1.26953 -0.84635464,-0.58594 -2.0507824,-0.58594 -1.1718756,0 -2.1158865,0.55338 -0.9440109,0.55339 -1.5950529,1.5625 -0.61849,0.97657 -0.9765631,2.34376 -0.325521,1.33463 -0.325521,2.92969 0,4.55729 1.7252614,6.96614 1.7252613,2.37631 4.94791927,2.37631 1.52994873,0 2.60416803,-0.48828 1.1067715,-0.48829 1.920574,-1.07422 0.8463546,-0.58594 1.5299487,-1.07422 0.6835941,-0.48828 1.3997403,-0.48828 0.3906252,0 0.7812505,0.26041 0.3906252,0.22787 0.6835941,0.61849 0.325521,0.35808 0.520834,0.81381 0.227864,0.45572 0.227864,0.91145 0,1.07422 -1.074219,2.21355 -1.0416673,1.13932 -2.7018244,2.08333 -1.6601571,0.91146 -3.7109395,1.4974 -2.01823023,0.58594 -3.9388042,0.58594 -2.5716159,0 -4.7200546,-1.00912 -2.1484386,-0.97656 -3.7109395,-2.73438 -1.5625008,-1.79036 -2.4414078,-4.26432 -0.846354,-2.47396 -0.846354,-5.46875 0,-3.25521 0.944011,-5.98959 0.976563,-2.73438 2.6692719,-4.72005 1.7252613,-2.01824 4.0690125,-3.12501 2.3437513,-1.13932 5.11067985,-1.13932 z M 38.801407,294.68554 q 0.944011,-0.8138 1.85547,-0.8138 0.520834,0 0.944011,0.26042 0.423177,0.26041 0.944011,0.8138 0.488282,0.7487 0.683594,1.23698 0.227865,0.45573 0.227865,0.91146 0,0.97656 -0.976563,1.85547 -1.562501,1.30208 -3.385419,2.34375 -1.822917,1.00911 -3.808595,1.72526 -1.985679,0.71615 -4.101565,1.07422 -2.115887,0.39063 -4.199221,0.39063 -2.63672,0 -4.947919,-0.6836 -2.3112,-0.65104 -4.134117,-1.88802 -1.790366,-1.23698 -3.027346,-2.96224 -1.236979,-1.75782 -1.757813,-3.93881 -0.292969,-0.91145 -0.553386,-1.17187 -0.227864,-0.29297 -0.78125,-0.29297 -1.204428,0 -1.8554699,-0.58594 -0.651042,-0.58594 -0.651042,-1.69271 0,-0.45573 0.065104,-0.58594 l 0.065104,-0.65104 q 0.1627605,-1.17187 0.6184895,-1.69271 0.488282,-0.52083 1.497397,-0.52083 h 0.488282 q 1.367188,0 1.920573,-1.26953 1.009116,-2.2461 2.571616,-4.10157 1.562501,-1.85547 3.515627,-3.15755 1.953126,-1.33464 4.166669,-2.05078 2.246095,-0.7487 4.557294,-0.7487 2.408856,0 4.49219,0.71614 2.115887,0.6836 3.678388,1.92058 1.5625,1.23698 2.441407,2.89714 0.911459,1.66015 0.911459,3.58073 0,1.33463 -0.520834,2.4414 -0.520833,1.10678 -1.497396,1.95313 -0.976563,0.8138 -2.376304,1.33464 -1.367188,0.52083 -3.125001,0.68359 l -11.295579,1.13932 q -0.651042,0 -1.07422,0.32553 -0.390625,0.32552 -0.390625,0.8789 0,0.84636 0.61849,1.62761 0.651042,0.78125 1.692709,1.39974 1.07422,0.58594 2.441408,0.94401 1.39974,0.35807 2.864585,0.35807 1.39974,0 2.864585,-0.26042 1.497396,-0.29296 2.929689,-0.8138 1.464844,-0.52083 2.832032,-1.23698 1.367189,-0.7487 2.571616,-1.69271 z m -7.259118,-8.39844 q 0.488281,-0.0977 0.846355,-0.45573 0.358073,-0.39062 0.358073,-0.94401 0,-0.48828 -0.358073,-0.91146 -0.358074,-0.42318 -0.976563,-0.7487 -0.61849,-0.35807 -1.432293,-0.55338 -0.813802,-0.19531 -1.725261,-0.19531 -1.334636,0 -2.734377,0.39062 -1.39974,0.39063 -2.539064,1.04167 -1.139323,0.61849 -1.855469,1.39974 -0.716146,0.7487 -0.716146,1.49739 0,0.7487 0.911458,0.7487 0.553386,0 1.790366,-0.13021 1.23698,-0.1302 2.734376,-0.29296 1.497397,-0.19532 3.027346,-0.42318 1.529948,-0.22787 2.669272,-0.42318 z m 41.666696,8.39844 q 0.944011,-0.8138 1.85547,-0.8138 0.520833,0 0.944011,0.26042 0.423177,0.26041 0.944011,0.8138 0.488281,0.7487 0.683594,1.23698 0.227864,0.45573 0.227864,0.91146 0,0.97656 -0.976563,1.85547 -1.562501,1.30208 -3.385418,2.34375 -1.822918,1.00911 -3.808596,1.72526 -1.985678,0.71615 -4.101565,1.07422 -2.115886,0.39063 -4.199221,0.39063 -2.63672,0 -4.947919,-0.6836 -2.311199,-0.65104 -4.134117,-1.88802 -1.790365,-1.23698 -3.027345,-2.96224 -1.23698,-1.75782 -1.757814,-3.93881 -0.292968,-0.91145 -0.553385,-1.17187 -0.227865,-0.29297 -0.781251,-0.29297 -1.204427,0 -1.855469,-0.58594 -0.651042,-0.58594 -0.651042,-1.69271 0,-0.45573 0.0651,-0.58594 l 0.0651,-0.65104 q 0.16276,-1.17187 0.61849,-1.69271 0.488281,-0.52083 1.497397,-0.52083 h 0.488281 q 1.367188,0 1.920574,-1.26953 1.009115,-2.2461 2.571616,-4.10157 1.562501,-1.85547 3.515627,-3.15755 1.953126,-1.33464 4.166669,-2.05078 2.246095,-0.7487 4.557294,-0.7487 2.408855,0 4.49219,0.71614 2.115886,0.6836 3.678387,1.92058 1.562501,1.23698 2.441408,2.89714 0.911458,1.66015 0.911458,3.58073 0,1.33463 -0.520833,2.4414 -0.520834,1.10678 -1.497397,1.95313 -0.976563,0.8138 -2.376303,1.33464 -1.367188,0.52083 -3.125002,0.68359 l -11.295579,1.13932 q -0.651042,0 -1.074219,0.32553 -0.390625,0.32552 -0.390625,0.8789 0,0.84636 0.61849,1.62761 0.651042,0.78125 1.692709,1.39974 1.074219,0.58594 2.441407,0.94401 1.399741,0.35807 2.864585,0.35807 1.399741,0 2.864585,-0.26042 1.497397,-0.29296 2.929689,-0.8138 1.464845,-0.52083 2.832033,-1.23698 1.367188,-0.7487 2.571616,-1.69271 z m -7.259119,-8.39844 q 0.488282,-0.0977 0.846355,-0.45573 0.358073,-0.39062 0.358073,-0.94401 0,-0.48828 -0.358073,-0.91146 -0.358073,-0.42318 -0.976563,-0.7487 -0.61849,-0.35807 -1.432292,-0.55338 -0.813803,-0.19531 -1.725262,-0.19531 -1.334636,0 -2.734376,0.39062 -1.39974,0.39063 -2.539064,1.04167 -1.139324,0.61849 -1.85547,1.39974 -0.716146,0.7487 -0.716146,1.49739 0,0.7487 0.911459,0.7487 0.553386,0 1.790365,-0.13021 1.23698,-0.1302 2.734377,-0.29296 1.497396,-0.19532 3.027345,-0.42318 1.529949,-0.22787 2.669272,-0.42318 z m 43.457054,-12.85808 q -1.82291,0 -3.38541,0.87891 -1.52995,0.84635 -2.70183,2.3763 -1.13932,1.4974 -1.79036,3.54818 -0.65105,2.05078 -0.65105,4.39453 0,2.40886 1.07422,4.45964 1.10677,2.01823 3.02735,3.54818 1.95312,1.4974 4.55729,2.34375 2.63672,0.84636 5.72917,0.84636 2.2461,0 4.23178,-0.39063 2.01823,-0.42318 3.51562,-1.10677 1.4974,-0.68359 2.37631,-1.59505 0.8789,-0.94401 0.8789,-1.98568 0,-0.8138 -0.29297,-1.33464 -0.29297,-0.55338 -0.68359,-0.97656 -0.35807,-0.45573 -0.65104,-0.87891 -0.29297,-0.45573 -0.29297,-1.13932 0,-0.65104 0.32552,-1.23698 0.32552,-0.58594 0.87891,-1.04167 0.58593,-0.45573 1.30208,-0.71614 0.7487,-0.26042 1.52995,-0.26042 0.94401,0 1.75781,0.48828 0.84636,0.48828 1.4323,1.36719 0.61849,0.84635 0.94401,2.01823 0.35807,1.13932 0.35807,2.44141 0,2.63672 -1.39974,4.91536 -1.39974,2.2461 -3.8737,3.8737 -2.47396,1.62761 -5.85938,2.57162 -3.38542,0.91146 -7.35677,0.91146 -4.39454,0 -8.10548,-1.17188 -3.71094,-1.20442 -6.412761,-3.32031 -2.669272,-2.11589 -4.166669,-5.01302 -1.497396,-2.89714 -1.497396,-6.34766 0,-3.77605 1.302084,-7.12891 1.334636,-3.35287 3.613283,-5.85938 2.278649,-2.50651 5.305989,-3.97136 3.0599,-1.46484 6.51042,-1.46484 1.52995,0 2.79948,0.35807 1.30209,0.32552 2.2461,0.94401 0.94401,0.61849 1.46484,1.46485 0.55339,0.8138 0.55339,1.79036 0,0.78125 -0.35807,1.4974 -0.32552,0.68359 -0.87891,1.23698 -0.55339,0.52083 -1.30208,0.84635 -0.71615,0.32552 -1.52995,0.32552 -0.84636,0 -1.36719,-0.39062 -0.48828,-0.39063 -0.91146,-0.84636 -0.42318,-0.48828 -0.91146,-0.8789 -0.48828,-0.39063 -1.33464,-0.39063 z m 22.85158,17.57814 q 0,-0.55339 0.1302,-1.23698 0.13021,-0.6836 0.13021,-1.4974 0,-0.55339 -0.48828,-0.84636 -0.45573,-0.29296 -1.04167,-0.65104 -0.58593,-0.35807 -1.07422,-0.91146 -0.45573,-0.55338 -0.45573,-1.59505 0,-0.7487 0.39063,-1.4974 0.42318,-0.74869 1.20443,-1.36718 1.92057,-1.4323 3.97135,-2.57162 2.08334,-1.13932 4.13412,-1.92057 2.08334,-0.78125 4.10157,-1.20443 2.01823,-0.42318 3.8737,-0.42318 3.125,0 5.85937,1.17188 2.76693,1.13932 4.78516,3.15755 2.05078,1.98568 3.22266,4.6875 1.20443,2.66928 1.20443,5.72917 0,2.9948 -1.26953,5.69662 -1.23698,2.66927 -3.35287,4.6875 -2.11589,2.01823 -4.98047,3.19011 -2.83203,1.20443 -5.98959,1.20443 -3.09245,0 -5.72917,-1.04167 -2.63672,-1.04167 -4.55729,-2.86459 -1.92058,-1.85547 -2.9948,-4.36198 -1.07421,-2.53906 -1.07421,-5.53385 z m 15.07162,7.94271 q 1.36719,0 2.83203,-0.55339 1.46485,-0.55338 2.66927,-1.59505 1.23698,-1.07422 2.01823,-2.60417 0.81381,-1.52995 0.81381,-3.45052 0,-1.95313 -0.71615,-3.64584 -0.71615,-1.69271 -1.98568,-2.92969 -1.23698,-1.26953 -2.96224,-1.98567 -1.69271,-0.71615 -3.67839,-0.71615 -3.61328,0 -5.53385,1.88802 -1.92058,1.85547 -1.92058,5.72917 0,2.11589 0.61849,3.93881 0.65104,1.79036 1.79037,3.125 1.13932,1.30208 2.66927,2.05078 1.5625,0.7487 3.38542,0.7487 z m 40.88543,-20.931 q 0.13021,0.0651 0.39062,0.0651 0.71615,0 0.71615,-0.94401 v -10.1237 q 0,-1.92058 0.84635,-2.73438 0.87891,-0.8138 2.89714,-0.8138 2.05078,0 2.89714,0.84635 0.84635,0.84636 0.84635,2.89714 0,0.78125 -0.0977,2.3112 -0.0977,1.4974 -0.22787,3.41797 -0.0976,1.92057 -0.19531,4.13412 -0.0977,2.18099 -0.0977,4.32943 0,3.32031 0.45573,5.72917 0.45573,2.40885 1.30209,4.0039 0.84635,1.5625 2.01823,2.34376 1.17187,0.74869 2.63672,0.74869 0.8138,0 1.46484,-0.19531 0.6836,-0.22786 1.59505,-0.22786 0.65105,0 1.07422,0.68359 0.45573,0.65104 0.45573,1.59505 0,0.84636 -0.52083,1.59506 -0.48828,0.74869 -1.36719,1.30208 -0.84635,0.55339 -1.98568,0.87891 -1.13932,0.29297 -2.3763,0.29297 -2.66927,0 -4.88282,-1.62761 -2.21354,-1.66016 -3.32031,-5.04557 -0.0977,-0.52084 -0.32552,-0.52084 -0.26042,0 -0.42318,0.52084 -0.8789,2.3763 -2.3112,4.29687 -1.39974,1.88802 -3.28776,3.25521 -1.85547,1.33464 -4.10156,2.05079 -2.21355,0.71614 -4.68751,0.71614 -2.60416,0 -4.78516,-0.87891 -2.14843,-0.84635 -3.71093,-2.3763 -1.56251,-1.5625 -2.44141,-3.64583 -0.87891,-2.11589 -0.87891,-4.5573 0,-3.125 1.30208,-5.89193 1.30209,-2.76693 3.51563,-4.81771 2.2461,-2.08333 5.20834,-3.28776 2.96224,-1.20443 6.31511,-1.20443 1.36718,0 2.89713,0.22787 1.52995,0.19531 3.19011,0.65104 z m -9.34245,19.92188 q 1.85546,0 3.28776,-0.8138 1.46484,-0.8138 2.57161,-2.05078 1.13933,-1.26953 1.92058,-2.76693 0.78125,-1.52995 1.26953,-2.96224 0.48828,-1.43229 0.71615,-2.57162 0.22786,-1.13932 0.22786,-1.6276 0,-0.35808 -0.19531,-0.61849 -0.19532,-0.29297 -0.58594,-0.45573 -0.87891,-0.22787 -1.82292,-0.39063 -0.94401,-0.19531 -1.85547,-0.32552 -0.91146,-0.13021 -1.75781,-0.19531 -0.8138,-0.0651 -1.4974,-0.0651 -1.95312,0 -3.54818,0.58593 -1.59505,0.58594 -2.73437,1.66016 -1.10677,1.07422 -1.72526,2.57162 -0.61849,1.46484 -0.61849,3.22265 0,1.5625 0.45572,2.83204 0.48829,1.23698 1.30209,2.11588 0.84635,0.87891 2.01823,1.36719 1.17187,0.48828 2.57162,0.48828 z m 54.32946,-3.25521 q 0.94401,-0.8138 1.85547,-0.8138 0.52083,0 0.94401,0.26042 0.42318,0.26041 0.94401,0.8138 0.48828,0.7487 0.6836,1.23698 0.22786,0.45573 0.22786,0.91146 0,0.97656 -0.97656,1.85547 -1.5625,1.30208 -3.38542,2.34375 -1.82292,1.00911 -3.8086,1.72526 -1.98567,0.71615 -4.10156,1.07422 -2.11589,0.39063 -4.19922,0.39063 -2.63672,0 -4.94792,-0.6836 -2.3112,-0.65104 -4.13412,-1.88802 -1.79036,-1.23698 -3.02734,-2.96224 -1.23698,-1.75782 -1.75782,-3.93881 -0.29297,-0.91145 -0.55338,-1.17187 -0.22787,-0.29297 -0.78125,-0.29297 -1.20443,0 -1.85547,-0.58594 -0.65104,-0.58594 -0.65104,-1.69271 0,-0.45573 0.0651,-0.58594 l 0.0651,-0.65104 q 0.16276,-1.17187 0.61849,-1.69271 0.48829,-0.52083 1.4974,-0.52083 h 0.48828 q 1.36719,0 1.92058,-1.26953 1.00911,-2.2461 2.57161,-4.10157 1.5625,-1.85547 3.51563,-3.15755 1.95312,-1.33464 4.16667,-2.05078 2.24609,-0.7487 4.55729,-0.7487 2.40886,0 4.49219,0.71614 2.11589,0.6836 3.67839,1.92058 1.5625,1.23698 2.44141,2.89714 0.91146,1.66015 0.91146,3.58073 0,1.33463 -0.52084,2.4414 -0.52083,1.10678 -1.49739,1.95313 -0.97657,0.8138 -2.37631,1.33464 -1.36719,0.52083 -3.125,0.68359 l -11.29558,1.13932 q -0.65104,0 -1.07422,0.32553 -0.39062,0.32552 -0.39062,0.8789 0,0.84636 0.61849,1.62761 0.65104,0.78125 1.69271,1.39974 1.07422,0.58594 2.4414,0.94401 1.39974,0.35807 2.86459,0.35807 1.39974,0 2.86458,-0.26042 1.4974,-0.29296 2.92969,-0.8138 1.46485,-0.52083 2.83204,-1.23698 1.36718,-0.7487 2.57161,-1.69271 z m -7.25912,-8.39844 q 0.48828,-0.0977 0.84636,-0.45573 0.35807,-0.39062 0.35807,-0.94401 0,-0.48828 -0.35807,-0.91146 -0.35808,-0.42318 -0.97657,-0.7487 -0.61849,-0.35807 -1.43229,-0.55338 -0.8138,-0.19531 -1.72526,-0.19531 -1.33464,0 -2.73438,0.39062 -1.39974,0.39063 -2.53906,1.04167 -1.13932,0.61849 -1.85547,1.39974 -0.71615,0.7487 -0.71615,1.49739 0,0.7487 0.91146,0.7487 0.55339,0 1.79037,-0.13021 1.23698,-0.1302 2.73437,-0.29296 1.4974,-0.19532 3.02735,-0.42318 1.52995,-0.22787 2.66927,-0.42318 z m 22.07032,-12.72787 q 2.18099,0 4.49219,0.58594 2.3112,0.55338 4.23177,1.46484 1.92058,0.87891 3.15756,1.98568 1.23698,1.10677 1.23698,2.14844 0,0.52083 -0.45573,1.17187 -0.45573,0.61849 -1.10678,1.20443 -0.65104,0.55339 -1.43229,0.94401 -0.7487,0.35808 -1.33463,0.35808 -0.78125,0 -1.75782,-0.65105 -0.94401,-0.65104 -2.11588,-1.43229 -1.13933,-0.8138 -2.50652,-1.46484 -1.36718,-0.65104 -2.96224,-0.65104 -1.04166,0 -1.72526,0.52083 -0.65104,0.48828 -0.65104,1.39974 0,0.8138 0.78125,1.66016 0.78125,0.8138 2.05078,1.69271 1.30209,0.8789 2.92969,1.85547 1.62761,0.97656 3.32032,2.08333 1.72526,1.10677 3.35286,2.40886 1.62761,1.30208 2.89714,2.83203 1.30208,1.52995 2.08333,3.35286 0.78125,1.79037 0.78125,3.90626 0,1.82291 -0.65104,3.32031 -0.65104,1.4974 -1.85547,2.57162 -1.20443,1.07422 -2.86458,1.66015 -1.66016,0.58594 -3.64584,0.58594 -2.50651,0 -4.6224,-0.78125 -2.11588,-0.7487 -3.64583,-2.08333 -1.52995,-1.33464 -2.40886,-3.19011 -0.84635,-1.85547 -0.84635,-4.06901 0,-2.86459 1.00911,-4.16667 1.04167,-1.30208 3.25521,-1.30208 1.36719,0 2.18099,0.52083 0.81381,0.52083 0.81381,1.26953 0,0.39063 -0.13021,0.8138 -0.13021,0.39063 -0.29297,0.84636 -0.13021,0.42318 -0.26042,0.91146 -0.0977,0.48828 -0.0977,0.97656 0,0.84635 0.39062,1.6276 0.39063,0.78126 1.04167,1.36719 0.68359,0.61849 1.5625,0.97657 0.87891,0.35807 1.85547,0.35807 2.60417,0 2.60417,-2.14844 0,-1.69271 -1.33464,-3.19011 -1.33463,-1.52994 -3.35287,-2.96224 -2.01823,-1.46484 -4.36198,-2.92969 -2.3112,-1.46484 -4.32943,-3.05989 -2.01823,-1.59506 -3.35286,-3.38542 -1.33464,-1.82292 -1.33464,-3.93881 0,-1.75781 0.71615,-3.22265 0.7487,-1.46485 2.01823,-2.50652 1.26953,-1.07421 2.96224,-1.66015 1.72526,-0.58594 3.71094,-0.58594 z"
       id="text1"
       style="font-size:66.6667px;font-family:'Gochi Hand';-inkscape-font-specification:'Gochi Hand, Normal';text-align:center;text-anchor:middle;white-space:pre;inline-size:425.757"
       transform="matrix(2.6760429,0,0,3.8724187,349.43124,-787.09361)"
       aria-label="Kaycee Codes" />
  </g>
</svg>
