<?xml version="1.0" encoding="UTF-8" standalone="no"?>
<!-- Created with Inkscape (http://www.inkscape.org/) -->

<svg
   width="1080"
   height="1080"
   viewBox="0 0 1080 1080"
   version="1.1"
   id="svg1"
   xmlns="http://www.w3.org/2000/svg"
   xmlns:svg="http://www.w3.org/2000/svg">
  <defs
     id="defs1" />
  <g
     id="layer1">
    <path
       id="path1"
       style="font-size:66.6667px;font-family:'Gochi Hand';-inkscape-font-specification:'Gochi Hand, Normal';text-align:center;text-anchor:middle;white-space:pre;inline-size:425.757;fill:#aaeeff;stroke-width:3.21912"
       d="m 857.69336,229.17773 c -4.03326,0.0644 -8.31791,1.7081 -10.54681,5.22857 -2.48988,3.92829 -2.73657,8.74687 -2.73403,13.26596 -0.0203,12.39635 0.0141,24.79274 -0.0199,37.18907 -5.09328,-1.70495 -10.44933,-2.78375 -15.83505,-2.74986 -7.46777,0.0903 -14.82155,2.6051 -20.93502,6.86276 -9.40288,6.39536 -16.26571,16.01588 -20.51271,26.46953 -4.97626,12.08618 -6.65743,25.46067 -5.1581,38.42614 1.11713,9.07617 4.06448,18.06345 9.37496,25.56965 4.77809,6.65439 11.90229,11.87628 20.05225,13.37881 8.3529,1.58893 17.19453,-0.42833 24.29787,-5.01996 7.93321,-5.02989 13.74979,-12.7931 17.84411,-21.137 1.10037,-2.24484 2.08362,-4.54612 2.96349,-6.88601 2.36712,6.24346 6.13074,12.22423 11.7948,15.95448 3.70636,2.51218 8.23444,3.80028 12.71105,3.45568 4.98982,-0.28908 9.8347,-2.44106 13.36249,-5.98713 1.0276,-1.0198 1.9496,-2.14792 2.73517,-3.36444 3.57129,8.40734 9.43086,16.06768 17.38587,20.73411 6.43631,3.84538 14.00125,5.74852 21.49179,5.38935 7.01747,-0.32442 13.94715,-2.14241 20.30619,-5.10629 8.99945,-4.25365 16.924,-10.70361 23.06615,-18.52303 2.88791,-3.93775 3.77737,-9.30407 2.08671,-13.91393 -0.63689,-1.94967 -1.3355,-3.90981 -2.33626,-5.70042 -1.59233,-2.40982 -3.57794,-4.94225 -6.548,-5.60831 -3.32471,-0.83012 -6.72597,0.91744 -8.90283,3.37189 -3.83008,4.58684 -8.50231,8.49091 -13.82696,11.22773 -5.07065,2.69816 -10.89945,4.48652 -16.68149,3.63017 -4.96414,-0.81983 -9.81962,-3.56366 -12.37512,-8.00529 -0.88901,-1.56645 -1.46317,-3.41495 -1.20121,-5.22254 8.04892,-1.08388 16.03347,-2.33235 24.0857,-3.47368 3.23516,-0.50982 6.49795,-0.87685 9.70532,-1.5439 7.18859,-1.69343 13.72036,-6.47763 17.00824,-13.15748 3.53888,-6.86483 4.01004,-14.91746 2.80817,-22.43822 -1.35968,-8.04134 -4.94049,-15.80893 -10.63339,-21.7014 -4.7522,-4.86128 -10.96339,-8.34335 -17.64786,-9.65407 -6.64924,-1.27389 -13.67739,-0.29671 -19.75782,2.66992 -8.08876,3.82006 -14.70277,10.26458 -19.72707,17.58217 -4.57415,6.64169 -7.8288,14.10792 -10.22202,21.78588 -0.24993,0.59424 -0.62394,1.51492 -1.44292,1.26677 -2.74938,-0.13659 -5.71886,0.66512 -7.51319,2.87634 -2.13499,2.51565 -2.6273,5.92425 -2.99595,9.09238 -0.12341,1.52427 -0.25134,2.88234 -0.37739,4.3779 -0.10574,2.8907 0.20938,5.89619 1.58128,8.48731 -2.2292,0.17604 -4.37257,-1.01414 -5.66661,-2.79041 -2.60906,-3.27342 -3.91008,-7.35738 -4.95441,-11.35233 -0.95614,-3.73335 -1.59422,-7.701 -2.02351,-11.42952 -1.37974,-12.44397 -1.01681,-24.98952 -0.71289,-37.48047 0.26569,-8.30751 0.52002,-16.71775 0.95646,-25.05795 0.21251,-5.01775 0.51678,-10.0431 0.34523,-15.06581 -0.18175,-4.04287 -0.86064,-8.32161 -3.39935,-11.60671 -2.46218,-3.0383 -6.4766,-4.36063 -10.29216,-4.32218 -0.32778,-0.009 -0.65547,0.001 -0.98323,0.006 z M 93.355469,244.43555 c -5.613261,0.28577 -10.661344,3.31886 -14.760498,6.97806 -6.417554,5.78064 -11.340915,12.99406 -15.670189,20.41191 -5.766152,10.0579 -10.409145,20.73061 -14.280251,31.64909 -1.681297,-6.78111 -2.956518,-13.66407 -4.912503,-20.37511 -1.346294,-4.8492 -3.698064,-9.44768 -7.032117,-13.23183 -3.403966,-3.63235 -9.117842,-4.4081 -13.621397,-2.56897 -4.435737,1.72601 -7.828579,6.13871 -7.878903,10.96568 -0.03343,2.52469 0.279585,5.05686 1.018953,7.47449 2.283308,7.75611 4.201307,15.54905 6.084632,23.40908 2.871471,12.00957 5.33815,24.25055 7.539952,36.45255 1.587078,9.03578 3.065624,18.09366 4.181759,27.20071 0.422713,3.28898 1.795156,6.74031 4.724572,8.5554 2.826,1.77819 6.396471,1.66586 9.513588,0.83246 3.571461,-0.96574 6.654344,-3.49892 8.29132,-6.81763 1.967445,-3.72684 2.304195,-8.00823 2.54292,-12.13925 0.290884,-3.51765 0.700923,-7.08432 1.357779,-10.47685 0.270959,-1.3793 0.54787,-2.60367 0.921787,-3.99174 0.620064,-2.1518 1.295145,-4.36872 2.62539,-6.20032 0.247822,-0.39494 0.806367,0.10493 1.166861,0.12745 3.543318,1.32577 6.843377,3.2074 10.204351,4.92657 7.455509,3.88378 14.627386,8.29908 22.211485,11.93706 5.42013,2.59789 10.95007,5.0318 16.72049,6.74542 0.80989,0.22699 1.6255,0.43426 2.44846,0.60842 1.4087,5.55062 4.0759,11.03653 8.65424,14.64578 3.70624,3.00302 8.45326,4.66246 13.22462,4.60651 7.38741,0.0338 14.45495,-3.10742 20.26834,-7.50002 7.29913,-5.44565 12.92244,-12.79127 17.69069,-20.47297 1.291,6.67967 3.18953,13.36763 6.7261,19.23296 2.61817,4.30183 6.40976,8.23633 11.36736,9.67275 5.16412,1.42684 10.70165,0.0589 15.31629,-2.4265 6.05784,-3.21363 11.02858,-8.63118 13.29424,-15.1422 1.66704,-4.87153 1.2275,-10.65896 -1.92692,-14.8451 -1.34435,-1.86522 -3.43696,-3.27034 -5.78529,-3.33955 -2.32971,-0.20429 -4.49736,0.83155 -6.47811,1.92959 -1.58135,0.80291 -3.35854,1.76321 -5.18555,1.33602 -1.85858,-0.87278 -2.71935,-2.91004 -3.56445,-4.65625 -1.87125,-4.41538 -2.44818,-9.23424 -2.9773,-13.96045 -0.38902,-3.89449 -0.56921,-8.05049 -0.65761,-12.00854 -0.0773,-2.24499 -0.15492,-4.49078 -0.23228,-6.73609 4.48776,-1.38961 7.7987,-5.31136 9.40358,-9.61319 1.31974,-3.36346 1.5949,-7.05798 1.24229,-10.61137 -0.60725,-7.32169 -3.45335,-14.52465 -8.3197,-20.06255 -4.99529,-5.64724 -12.28773,-9.44137 -19.90582,-9.4703 -6.61998,-0.0546 -12.92342,2.65689 -18.37103,6.23627 -9.22845,5.99371 -16.704,14.29245 -23.1623,23.11687 -8.09204,11.24184 -14.48121,23.75499 -18.52871,37.01414 2.8e-4,0.94821 -0.85987,0.20519 -1.38875,0.11332 -3.71681,-1.31396 -7.49588,-2.67207 -11.12581,-4.06108 -5.63913,-2.16778 -11.257672,-4.53011 -16.661136,-7.33837 -3.714038,-1.94681 -7.436678,-4.11811 -10.260096,-7.27373 -1.045925,-1.22236 -1.652433,-2.84942 -1.38038,-4.46304 0.198351,-3.42322 2.007202,-6.45242 3.952509,-9.17252 1.772926,-2.53427 3.868568,-4.90148 5.943844,-7.07829 3.598554,-3.7389 7.429605,-7.26032 10.753767,-11.25599 3.301802,-3.93551 6.334882,-8.22006 8.127022,-13.06939 2.34148,-6.66286 1.64061,-14.53074 -2.51967,-20.33656 -2.49941,-3.4163 -6.620294,-5.78402 -10.932421,-5.48281 z m 544.062501,0.25586 c -7.97001,0.24263 -15.61851,3.66129 -21.64461,8.78796 -8.70171,7.22457 -14.74752,17.15832 -18.87415,27.5826 -5.34742,13.56019 -7.45796,28.27838 -6.95122,42.80963 0.42212,10.00414 2.66186,19.98405 7.05399,29.00907 4.37491,9.13977 10.99873,17.27216 19.40504,22.98645 7.24656,5.01658 15.74312,8.20774 24.51185,9.13501 9.34459,1.05238 18.9888,0.0726 27.79415,-3.29715 10.49718,-4.04829 19.78007,-11.47814 25.5155,-21.21279 2.27337,8.61666 6.14202,16.95795 12.09223,23.66105 5.70061,6.41431 13.41544,11.26213 21.96576,12.63274 7.78843,1.31471 16.02298,-0.12866 22.84302,-4.13493 7.67896,-4.28597 13.95359,-10.8352 18.41595,-18.37347 4.8426,-8.08031 7.95549,-17.15717 9.40994,-26.45081 1.52485,-10.2142 1.08899,-20.72932 -1.30968,-30.77536 -2.62283,-10.83846 -7.45402,-21.34721 -15.13454,-29.54282 -4.96733,-5.21249 -11.17037,-9.41861 -18.1431,-11.38743 -7.74622,-2.20288 -16.09719,-1.1605 -23.53384,1.68531 -10.91089,4.03896 -20.4406,11.12858 -28.6154,19.3007 -2.41649,2.40742 -4.78213,4.97331 -6.16792,8.13539 -0.2105,0.46616 -0.95318,0.0498 -1.38565,0.20931 -5.20306,0.26721 -9.79559,3.85245 -12.11686,8.39749 -2.16194,4.16396 -2.70941,9.25924 -1.08366,13.6971 1.04119,2.75287 2.92827,5.11547 3.81257,7.9301 0.86419,3.11719 0.35411,6.6245 -1.59993,9.23901 -2.8413,3.90556 -7.25818,6.32672 -11.73282,7.89907 -5.49729,1.85513 -11.45315,2.29141 -17.18092,1.42833 -4.25256,-0.69176 -8.37337,-2.23341 -11.99023,-4.58203 -0.41974,-0.26051 -1.1243,-0.73087 -1.63086,-1.09766 -6.40101,-4.59181 -10.89338,-11.50022 -13.30392,-18.93616 -1.77651,-5.41325 -2.2449,-11.16334 -2.08085,-16.83142 0.014,-0.61958 0.0617,-1.49326 0.0879,-2.0664 0.50012,-8.04408 1.98356,-16.1672 5.53019,-23.46189 2.0222,-4.04399 4.7335,-8.03669 8.80179,-10.2393 1.4785,-0.73769 3.20105,-1.28144 4.85552,-0.98827 1.45588,1.55869 2.3943,3.54077 3.72546,5.21958 1.34565,1.85172 3.12875,3.53163 5.42342,4.05834 3.54774,0.9648 7.36911,-0.2793 10.14479,-2.56642 4.1342,-3.32087 6.39494,-8.50896 7.07547,-13.67634 0.57266,-4.75646 -0.52182,-9.66905 -3.03265,-13.74652 -2.58516,-4.35442 -6.91397,-7.59953 -11.68048,-9.13384 -2.96156,-1.06172 -6.13866,-1.41246 -9.27124,-1.30323 z m 367.33793,23.56054 c -7.0307,0.10239 -13.89309,3.26187 -18.68044,8.38749 -5.86164,6.10274 -9.10636,14.42414 -9.6501,22.81227 -0.60254,7.36334 0.70173,14.95686 4.26463,21.47213 4.21208,8.11441 10.38225,14.98638 16.84292,21.36828 1.10188,1.08192 2.21666,2.15073 3.34409,3.20593 -3.80399,0.39508 -7.41582,2.47547 -9.50909,5.70124 -2.61665,3.87444 -3.35592,8.63878 -3.76439,13.2011 -0.80335,9.70747 0.19924,19.78312 4.38253,28.67781 3.11767,6.76127 8.11805,12.76412 14.62805,16.47817 7.0257,4.12912 15.805,5.44133 23.6261,2.96928 6.4461,-2.0588 11.7568,-6.9084 15.018,-12.7669 3.9242,-6.98571 5.253,-15.15839 5.0408,-23.09288 -0.1277,-6.3341 -1.3017,-12.64157 -3.5196,-18.57846 -3.5866,-9.80839 -9.6741,-18.54732 -16.9187,-26.007 -6.1354,-6.45152 -13.0024,-12.13603 -19.5597,-18.14112 -2.8122,-2.68459 -5.6686,-5.43783 -7.655,-8.81351 -1.0158,-1.81847 -1.5009,-4.23062 -0.4125,-6.11956 0.9136,-1.22503 2.6351,-0.82528 3.913,-0.57458 3.0258,0.68781 5.348,2.91694 7.6481,4.85483 2.9839,2.74273 5.7515,5.71409 8.7497,8.43915 2.2617,1.97204 5.411,3.30364 8.4166,2.44381 3.4752,-0.90928 6.1983,-3.49603 8.4473,-6.17529 2.1211,-2.70316 3.9861,-5.71943 4.8477,-9.07422 0.896,-3.95269 -0.2583,-8.10462 -2.4197,-11.45133 -3.0893,-4.90498 -7.667,-8.69023 -12.5356,-11.74016 -5.3101,-3.25212 -11.1734,-5.6663 -17.2908,-6.87101 -2.39,-0.44021 -4.8233,-0.65778 -7.2539,-0.60547 z m -664.16606,5.42774 c -6.35359,0.16818 -12.47342,2.82091 -17.30785,6.87997 -6.80472,5.57769 -11.34629,13.42643 -14.41026,21.57104 -2.18372,5.80629 -3.62276,11.87737 -4.48306,18.01578 -0.002,-5.33869 -0.16186,-10.72668 -1.27935,-15.96438 -0.87856,-3.79778 -2.63314,-7.72011 -6.04139,-9.87553 -2.85764,-1.89405 -6.4082,-2.36648 -9.76216,-2.02111 -2.99528,0.16744 -6.12984,1.27137 -7.94846,3.78183 -2.43017,3.15309 -2.82803,7.28347 -3.08374,11.12094 -0.68998,10.775 -1.45813,21.54493 -1.98646,32.32935 -0.25249,3.4252 -0.0962,7.09852 -1.63663,10.28516 -1.63659,2.95656 -3.65128,6.10898 -6.96777,7.3409 -2.60789,0.95415 -5.49819,-0.19984 -7.41078,-2.04491 -3.38369,-3.03928 -5.54232,-7.14875 -7.47364,-11.20009 -2.16543,-4.70738 -3.79627,-9.64202 -5.16157,-14.63497 -0.46001,-1.7207 -0.96043,-3.64953 -1.38245,-5.46428 -1.31772,-5.47222 -2.37429,-11.03297 -3.24761,-16.53668 -1.23686,-7.65208 -2.04539,-15.36433 -2.82307,-23.07326 -0.51501,-3.7256 -2.4391,-7.51038 -5.91015,-9.26172 -3.05002,-1.5497 -6.69538,-1.56306 -9.94922,-0.70312 -3.19403,0.87492 -6.0028,3.07491 -7.493,6.04878 -2.12092,4.00855 -2.43761,8.66192 -2.48033,13.11285 -0.072,14.83922 2.29149,29.638 6.38544,43.88134 3.30161,11.17246 7.68065,22.11882 13.94731,31.97822 3.69215,5.71855 8.09145,11.09682 13.58003,15.17998 4.0692,2.98083 9.06731,4.91372 14.16718,4.61292 4.60083,-0.18252 9.15977,-1.77669 12.79962,-4.61097 -0.045,11.37749 0.1598,22.75456 0.19003,34.13194 0.20064,13.11364 0.44755,26.22876 0.95598,39.33414 0.14129,3.32039 0.60463,6.82273 2.65086,9.56127 1.5063,2.13639 4.05037,3.46453 6.67097,3.41902 5.64609,-0.0728 11.28818,-2.97404 14.33137,-7.78792 1.93078,-2.92865 2.74406,-6.52393 2.37889,-10.00429 -0.32929,-6.70741 -0.92325,-13.41855 -1.27644,-20.07599 -0.25765,-5.57316 -0.61146,-11.19259 -0.75495,-16.70657 -0.43557,-18.58404 0.7396,-37.08234 1.52046,-55.65318 0.16056,-3.56357 0.28476,-7.12876 0.4715,-10.69107 0.0354,-0.56391 0.10356,-1.46857 0.17158,-2.16005 0.42208,-3.9272 1.40833,-7.9717 2.14946,-11.9353 0.26898,-1.39911 0.51367,-2.80232 0.73755,-4.20934 -0.36587,12.059 0.8326,24.37608 5.32679,35.66097 2.98656,7.58824 7.65984,14.76995 14.43556,19.47929 5.63343,4.12656 12.93229,5.85618 19.81897,4.70444 6.0345,-0.95573 11.67228,-3.66973 16.67253,-7.10925 5.18955,-3.6875 9.59949,-8.62634 12.20484,-14.4679 1.6825,-3.9479 1.92952,-8.56746 0.25293,-12.56146 -0.53065,-1.47611 -1.32765,-2.96276 -2.16474,-4.20414 0.75531,0.23293 1.5347,0.38698 2.32227,0.45508 0.97472,3.34088 1.31504,6.8361 2.40251,10.15018 2.67204,9.16391 7.74196,17.83225 15.25316,23.84762 7.06083,5.63329 16.14022,8.68504 25.17548,8.37139 7.04076,-0.2174 14.00067,-1.99689 20.40908,-4.88872 9.20943,-4.24814 17.31886,-10.79344 23.57617,-18.75977 2.88905,-3.93704 3.77664,-9.30438 2.08671,-13.91393 -0.63665,-1.94857 -1.33925,-3.90422 -2.33412,-5.69664 -1.59106,-2.41482 -3.5833,-4.94589 -6.556,-5.61209 -3.3571,-0.83628 -6.78437,0.9521 -8.96326,3.44304 -3.9467,4.72997 -8.81271,8.70584 -14.33781,11.4513 -5.06012,2.60965 -10.89276,4.26027 -16.59907,3.25072 -4.92164,-0.94709 -9.70883,-3.79352 -12.09663,-8.31798 -0.76116,-1.4676 -1.22568,-3.17154 -0.98498,-4.82512 7.66921,-1.02734 15.27999,-2.22347 22.94975,-3.30744 3.51029,-0.54283 7.04211,-0.97159 10.53049,-1.64104 7.30845,-1.62475 13.97778,-6.44504 17.31238,-13.21767 3.54222,-6.86466 4.0164,-14.92003 2.81286,-22.44206 -1.30917,-7.75803 -4.6858,-15.25388 -10.03223,-21.06818 -4.75564,-5.13524 -11.11226,-8.82457 -17.97949,-10.23572 -5.9421,-1.20298 -12.21263,-0.60448 -17.83096,1.6682 -8.76975,3.46518 -15.95051,10.10659 -21.35739,17.71284 -4.6692,6.56789 -8.03579,13.97969 -10.4718,21.64056 -0.30462,0.77721 -0.44455,1.83842 -1.26368,2.24598 -2.90237,-0.22433 -6.12117,0.50595 -8.01943,2.87371 -2.1925,2.60633 -2.65822,6.13322 -3.01479,9.40177 -0.21541,2.6267 -0.59227,5.27308 -0.18719,7.90422 0.2532,1.95463 0.89361,3.93143 1.95383,5.55663 -2.86571,-0.66311 -5.77408,0.75829 -7.77695,2.75143 -3.03787,2.96448 -5.76648,6.4282 -9.59976,8.41575 -2.57052,1.13004 -5.66033,1.02722 -8.18754,-0.16848 -3.40251,-1.77545 -5.32274,-5.36851 -6.57272,-8.84776 -2.23085,-6.18746 -2.76981,-12.82349 -2.98608,-19.35016 -0.0367,-1.62738 -0.0578,-3.47234 -0.007,-5.18375 0.17055,-5.89158 0.94259,-11.90508 3.42427,-17.30715 1.02847,-2.07906 2.4868,-4.26743 4.80157,-5.00922 1.4767,-0.4196 3.15761,0.0494 4.13518,1.25077 2.45951,2.28511 4.14062,5.23447 6.16064,7.88423 1.52166,2.24894 3.62223,4.41762 6.43241,4.83778 3.6025,0.62597 7.22493,-1.20958 9.50981,-3.93346 4.15444,-4.66116 5.76647,-11.26762 4.9062,-17.3849 -1.13927,-7.21899 -5.62587,-13.59435 -11.36718,-17.9668 -4.8361,-3.67069 -10.92183,-5.76145 -17.01368,-5.50781 z m 169.3418,5.91992 c -8.08416,0.20779 -15.74512,3.85029 -21.92023,8.91212 -8.92406,7.35071 -15.17618,17.51224 -19.14016,28.28012 -0.76585,1.9494 -1.30227,3.98744 -2.09661,5.92152 -0.20548,0.46516 -0.6192,0.90294 -1.17023,0.73334 -2.86259,-0.16538 -5.96626,0.74285 -7.74308,3.1197 -2.06251,2.65674 -2.50174,6.12795 -2.83796,9.37127 -0.21886,2.55981 -0.56427,5.14077 -0.17056,7.70491 0.4269,3.61288 2.32847,7.29114 5.7136,8.92186 1.18881,0.58145 2.48954,0.92634 3.80664,1.04297 0.97473,3.34088 1.31505,6.8361 2.40251,10.15018 2.67204,9.16391 7.74197,17.83225 15.25316,23.84762 7.06083,5.63329 16.14022,8.68504 25.17548,8.37139 7.04076,-0.2174 14.00067,-1.99689 20.40908,-4.88872 9.20944,-4.24814 17.31887,-10.79344 23.57617,-18.75977 2.88905,-3.93704 3.77664,-9.30438 2.08671,-13.91393 -0.63665,-1.94857 -1.33925,-3.90422 -2.33411,-5.69664 -1.59107,-2.41482 -3.5833,-4.94589 -6.55601,-5.61209 -3.3571,-0.83628 -6.78437,0.9521 -8.96326,3.44304 -3.9467,4.72997 -8.81271,8.70584 -14.33781,11.4513 -5.06012,2.60965 -10.89275,4.26027 -16.59906,3.25072 -4.92165,-0.94709 -9.70884,-3.79352 -12.09664,-8.31798 -0.76116,-1.4676 -1.22568,-3.17154 -0.98497,-4.82512 7.6692,-1.02734 15.27999,-2.22347 22.94974,-3.30744 3.5103,-0.54283 7.04211,-0.97159 10.53049,-1.64104 7.30845,-1.62475 13.97778,-6.44504 17.31238,-13.21767 3.54222,-6.86466 4.0164,-14.92003 2.81286,-22.44206 -1.30917,-7.75803 -4.6858,-15.25388 -10.03223,-21.06818 -4.75563,-5.13524 -11.11226,-8.82457 -17.97949,-10.23572 -2.3243,-0.45992 -4.69802,-0.65681 -7.06641,-0.5957 z m -334.22266,18.58398 c 1.30859,0.11282 1.82433,1.56855 2.53177,2.47181 0.50817,0.76609 0.99611,1.54773 1.42331,2.36218 -2.77776,1.21811 -4.67531,3.78124 -5.85351,6.49609 -1.70508,3.70476 -2.9459,7.60073 -4.62188,11.31889 -3.13921,7.43454 -6.69236,14.90446 -11.2436,21.66405 -2.67639,3.87202 -5.61571,7.69812 -9.4786,10.4616 -1.6369,1.11186 -3.57299,2.23637 -5.62663,1.93046 -1.1182,-0.66035 -1.25563,-2.15195 -1.41829,-3.32038 -0.46841,-5.42407 1.30182,-10.71397 3.19772,-15.71509 1.69387,-4.29458 3.74757,-8.44316 6.078,-12.42742 0.25444,-0.41228 0.68807,-1.14268 1.01117,-1.67685 0.36056,-0.57411 0.88376,-1.42836 1.32771,-2.10048 3.22183,-4.92724 6.79464,-9.64213 10.87596,-13.89259 0.498,-0.50039 1.20967,-1.22853 1.81821,-1.78694 2.24917,-2.05436 4.6502,-4.05594 7.46575,-5.27935 0.79531,-0.32198 1.64986,-0.53618 2.51291,-0.50598 z m 557.47266,8.69532 c 5.17225,-0.14521 9.9642,2.82069 13.13306,6.74426 4.00725,4.82221 6.3109,10.8631 7.36303,16.99597 0.0546,0.38164 0.18809,1.17368 0.25109,1.7153 0.85747,6.88415 0.49501,14.10655 -2.32724,20.52982 -1.9742,4.75445 -5.10992,9.22746 -9.61135,11.87988 -0.26838,0.14786 -0.91968,0.51877 -1.36523,0.70898 -2.58774,1.2448 -5.65016,1.48622 -8.35715,0.48056 -4.14301,-1.5196 -7.15265,-5.07407 -9.30302,-8.79962 -3.93861,-7.00735 -5.36783,-15.13797 -5.56188,-23.09454 -0.0407,-1.57855 -0.007,-3.35189 0.0541,-4.80514 0.0634,-1.31426 0.14478,-2.52613 0.27344,-3.88477 0.56631,-5.00415 1.69808,-10.25178 5.079,-14.16383 2.46707,-2.87388 6.28307,-4.30907 10.02008,-4.29787 0.11736,-0.003 0.23472,-0.007 0.35209,-0.009 z m -315.31641,3.91406 c 2.88708,0.10479 5.8974,1.55817 7.29688,4.16406 0.34232,0.87052 0.37899,1.95492 -0.1875,2.73828 -6.83673,1.63887 -13.73213,3.12778 -20.7047,4.09302 -1.23891,0.1771 -2.47054,0.41114 -3.71718,0.53003 0.82823,-2.62608 2.74503,-4.767 4.79612,-6.53578 3.49032,-2.8884 7.88674,-5.11594 12.51638,-4.98961 z m 92.07618,0 c 2.88707,0.10479 5.89739,1.55817 7.29687,4.16406 0.34232,0.87052 0.37899,1.95492 -0.1875,2.73828 -6.83672,1.63887 -13.73212,3.12778 -20.7047,4.09302 -1.23826,0.17711 -2.46929,0.41068 -3.71522,0.53003 0.77107,-2.48437 2.55104,-4.53051 4.45378,-6.24438 3.551,-3.04135 8.07351,-5.40744 12.85677,-5.28101 z m 428.16601,0 c 2.88058,0.10901 5.87543,1.56362 7.27735,4.1582 0.34857,0.86796 0.37964,1.96331 -0.18555,2.74219 -4.7401,1.16045 -9.52846,2.18114 -14.33001,3.08062 -3.35473,0.53295 -6.70156,1.14284 -10.07819,1.52485 0.68955,-2.38677 2.41594,-4.31585 4.19147,-5.98036 3.57058,-3.21749 8.22246,-5.62268 13.12493,-5.5255 z m -110.7539,2.40039 c 4.4155,0.15654 8.73869,1.19965 12.96679,2.41797 0.81244,0.24622 1.87729,0.52604 2.75586,0.88086 0.26353,1.22692 -0.0609,2.50327 -0.1372,3.74162 -0.31216,2.88818 -0.80681,5.91207 -1.38233,8.65681 -0.34561,1.61506 -0.6617,3.02402 -1.0471,4.61561 -1.5051,5.88786 -3.31747,11.75158 -6.1697,17.14221 -0.17198,0.31646 -0.54438,1.01437 -0.81554,1.46754 -2.15146,3.67013 -4.82314,7.23829 -8.53407,9.44652 -3.2496,1.73057 -7.53758,1.40439 -10.4082,-0.93555 -0.37358,-0.28969 -1.00677,-0.82929 -1.41986,-1.28243 -2.74098,-2.92659 -4.16533,-6.83669 -4.95791,-10.70575 -0.97123,-5.14532 -0.97398,-10.46016 -0.16129,-15.62705 0.063,-0.37218 0.20939,-1.15402 0.32306,-1.67817 1.06372,-4.88952 2.99792,-9.78893 6.56197,-13.40435 2.98,-2.9844 7.12793,-4.7956 11.36362,-4.74582 0.35391,-0.0128 0.70795,0.007 1.0619,0.01 z m 187.58008,46.10156 c 3.1515,3.55197 6.1208,7.35616 8.1414,11.6776 1.3658,3.2191 2.002,6.87476 1.2199,10.32045 -0.2299,0.86367 -0.9944,1.49324 -1.8973,1.49255 -2.6831,0.3484 -5.0711,-1.43488 -6.6169,-3.46433 -2.8173,-3.60393 -3.6054,-8.45566 -2.7917,-12.88803 0.4265,-2.52772 1.1715,-4.98935 1.5969,-7.51714 0.1159,0.1263 0.2318,0.2526 0.3477,0.3789 z" />
    <path
       id="text1"
       style="font-size:66.6667px;font-family:'Gochi Hand';-inkscape-font-specification:'Gochi Hand, Normal';text-align:center;text-anchor:middle;white-space:pre;inline-size:425.757"
       d="M 193.06594 263.46831 C 191.72046 263.46831 190.75436 263.73933 190.16842 264.28186 C 189.60418 264.82439 189.32251 265.73565 189.32251 267.01604 L 189.32251 277.13972 C 189.32251 277.76906 189.08396 278.0839 188.60652 278.0839 C 188.43292 278.0839 188.30213 278.06223 188.21532 278.01883 C 187.10855 277.71501 186.04509 277.4979 185.02512 277.36769 C 184.00516 277.21578 183.03978 277.13972 182.12833 277.13972 C 179.89308 277.13972 177.78771 277.5412 175.81288 278.34415 C 173.83806 279.1471 172.10204 280.24324 170.60464 281.63213 C 169.12894 282.99931 167.95698 284.60523 167.08892 286.44985 C 166.22087 288.29447 165.78686 290.25855 165.78686 292.34188 C 165.78686 293.96949 166.08039 295.48826 166.66633 296.89885 C 167.25227 298.28774 168.06603 299.50326 169.1077 300.54493 C 170.14937 301.56489 171.386 302.35677 172.81829 302.92101 C 174.27229 303.50695 175.86711 303.80012 177.60322 303.80012 C 179.25253 303.80012 180.81538 303.56134 182.29108 303.08392 C 183.78848 302.60648 185.15589 301.92292 186.39287 301.03316 C 187.65155 300.1217 188.74698 299.03664 189.68014 297.77796 C 190.63501 296.49758 191.40566 295.06545 191.99159 293.48125 C 192.1001 293.13402 192.2413 292.96024 192.41491 292.96024 C 192.56679 292.96024 192.67529 293.13402 192.74043 293.48125 C 193.47827 295.73819 194.58485 297.41967 196.06054 298.52645 C 197.53624 299.61152 199.16376 300.15455 200.94327 300.15455 C 201.76793 300.15455 202.56014 300.05682 203.31968 299.86151 C 204.07924 299.6445 204.74139 299.35132 205.30562 298.98239 C 205.89156 298.61347 206.34712 298.17924 206.67264 297.68012 C 207.01986 297.18098 207.19303 296.64954 207.19303 296.0853 C 207.19303 295.45596 207.04142 294.92401 206.7376 294.48999 C 206.45548 294.03426 206.09728 293.80657 205.66325 293.80657 C 205.05562 293.80657 204.52425 293.88264 204.06852 294.03454 C 203.63449 294.16475 203.14623 294.22973 202.6037 294.22973 C 201.62713 294.22973 200.74797 293.98038 199.96673 293.48125 C 199.18547 292.96041 198.51291 292.17912 197.94868 291.13745 C 197.38444 290.07408 196.95043 288.73917 196.64661 287.13327 C 196.34279 285.52737 196.19045 283.61769 196.19045 281.40415 C 196.19045 279.97186 196.22312 278.52865 196.28826 277.07466 C 196.3534 275.59896 196.41879 274.22123 196.48386 272.94085 C 196.57064 271.66047 196.64644 270.52102 196.71157 269.52275 C 196.7767 268.50278 196.80937 267.73257 196.80937 267.21173 C 196.80937 265.84455 196.52697 264.87888 195.96274 264.31464 C 195.3985 263.75041 194.43313 263.46831 193.06594 263.46831 z M -92.546275 267.40693 C -93.848359 267.40693 -95.215771 267.78674 -96.648064 268.54629 C -98.058654 269.30584 -99.469175 270.37982 -100.87977 271.7687 C -102.29036 273.1359 -103.66818 274.79621 -105.01367 276.74934 C -106.35916 278.68076 -107.59651 280.81812 -108.72499 283.16188 C -108.89859 283.4657 -109.05021 283.69389 -109.18041 283.8458 C -109.28892 283.99771 -109.43012 284.07377 -109.60373 284.07377 C -109.79904 284.07377 -110.00491 283.91056 -110.22192 283.58504 C -110.41723 283.23781 -110.62382 282.8041 -110.84084 282.28327 C -111.03615 281.74073 -111.24201 281.1438 -111.45902 280.49276 C -111.67604 279.82001 -111.89304 279.1581 -112.11006 278.50706 C -112.32707 277.85602 -112.55521 277.24851 -112.79393 276.68427 C -113.03264 276.09833 -113.28234 275.63187 -113.54276 275.28465 C -114.0853 274.54681 -114.61666 273.9932 -115.1375 273.62427 C -115.65833 273.25535 -116.36359 273.07098 -117.25335 273.07098 C -117.68737 273.07098 -118.11024 273.12539 -118.52257 273.23389 C -118.91319 273.3424 -119.26099 273.49402 -119.5648 273.68934 C -119.86862 273.88465 -120.10718 274.11285 -120.28079 274.37326 C -120.4544 274.61198 -120.54135 274.87241 -120.54135 275.15453 C -120.54135 275.48005 -120.50868 275.80546 -120.44355 276.13098 C -120.35674 276.4348 -120.22668 276.7708 -120.05307 277.13972 C -119.35863 278.83243 -118.69648 280.60156 -118.06714 282.44618 C -117.41609 284.2908 -116.81933 286.15665 -116.2768 288.04467 C -115.71257 289.93269 -115.20276 291.8212 -114.74702 293.70922 C -114.2696 295.59724 -113.86828 297.45251 -113.54276 299.27543 C -113.34745 300.46901 -112.6095 301.06594 -111.32911 301.06594 C -110.09213 301.06594 -109.12602 300.79442 -108.43158 300.25189 C -107.71544 299.68766 -107.30298 298.83029 -107.19448 297.68012 C -107.10767 296.66015 -106.9672 295.72723 -106.77189 294.88087 C -106.57658 294.01281 -106.33729 293.26426 -106.05517 292.63492 C -105.75135 292.00558 -105.42585 291.51695 -105.07863 291.16973 C -104.7097 290.8008 -104.32994 290.61644 -103.93932 290.61644 C -103.44019 290.61644 -102.70224 290.77915 -101.72567 291.10467 C -100.72741 291.43019 -99.58814 291.83167 -98.307756 292.3091 C -97.005672 292.78653 -95.616705 293.31848 -94.14101 293.90442 C -92.665314 294.46866 -91.190131 294.98952 -89.714435 295.46695 C -88.23874 295.94438 -86.817077 296.34586 -85.449889 296.67138 C -84.507394 296.89228 -83.635215 297.03817 -82.832626 297.10917 C -82.764663 297.38419 -82.681879 297.65029 -82.585205 297.90809 C -82.237983 298.75444 -81.760868 299.48184 -81.153229 300.08948 C -80.523888 300.67542 -79.764377 301.1308 -78.874619 301.45632 C -77.984862 301.78184 -76.986063 301.94455 -75.879292 301.94455 C -73.513839 301.94455 -71.116391 301.27206 -68.685835 299.92657 C -66.255277 298.55939 -63.965602 296.51924 -61.817163 293.80657 C -61.621851 293.54615 -61.393706 293.41619 -61.133288 293.41619 C -60.916274 293.41619 -60.743109 293.6333 -60.612901 294.06733 C -60.070366 296.78001 -59.158515 298.8413 -57.878132 300.25189 C -56.59775 301.64078 -55.111424 302.33543 -53.418714 302.33543 C -52.442152 302.33543 -51.476779 302.18331 -50.521917 301.87949 C -49.567055 301.57567 -48.709455 301.18527 -47.949906 300.70784 C -47.190357 300.20871 -46.582456 299.6551 -46.126727 299.04746 C -45.649296 298.43982 -45.410738 297.83231 -45.410738 297.22467 C -45.410738 296.61703 -45.606187 296.09617 -45.996812 295.66214 C -46.365736 295.22811 -46.799742 295.011 -47.298875 295.011 C -47.580993 295.011 -47.863389 295.05432 -48.145507 295.14113 C -48.427625 295.22793 -48.730846 295.33674 -49.056367 295.46695 C -49.360187 295.57545 -49.696834 295.67318 -50.065758 295.75999 C -50.41298 295.84679 -50.81429 295.89011 -51.270019 295.89011 C -52.550402 295.89011 -53.592309 295.1738 -54.395261 293.7415 C -55.176511 292.30921 -55.610518 290.04138 -55.697324 286.93808 L -55.827238 284.33403 C -55.783833 284.33403 -55.740724 284.32298 -55.697324 284.30124 L -55.599523 284.30124 C -55.556118 284.27951 -55.513009 284.26896 -55.469609 284.26896 C -54.992178 284.26896 -54.536617 284.18182 -54.102589 284.00821 C -53.646859 283.8129 -53.244819 283.56354 -52.897597 283.25972 C -52.550375 282.9342 -52.279121 282.56547 -52.083808 282.15314 C -51.866794 281.71911 -51.758293 281.27431 -51.758293 280.81858 C -51.758293 279.71181 -52.019134 278.70232 -52.539968 277.79086 C -53.0391 276.8794 -53.711664 276.0981 -54.558019 275.44706 C -55.404374 274.79602 -56.380888 274.28624 -57.48766 273.91731 C -58.594431 273.54839 -59.74484 273.36402 -60.938417 273.36402 C -62.479216 273.36402 -64.095598 273.68944 -65.788308 274.34048 C -67.481017 274.99152 -69.15238 275.87054 -70.801686 276.97731 C -72.429291 278.08409 -73.991422 279.36459 -75.488819 280.81858 C -76.964514 282.27257 -78.266534 283.80243 -79.395006 285.40833 C -80.523479 287.01424 -81.424189 288.64181 -82.096932 290.29112 C -82.184679 290.51341 -82.266973 290.73433 -82.342893 290.95386 C -84.59205 290.41387 -86.658236 289.89984 -88.542287 289.41201 C -90.972844 288.76097 -93.045517 288.1318 -94.759927 287.52416 C -96.474338 286.91652 -97.7875 286.30901 -98.698958 285.70137 C -99.61042 285.09373 -100.06598 284.46406 -100.06598 283.81302 C -100.06598 283.03177 -99.794726 282.29429 -99.252189 281.59985 C -98.687952 280.9054 -97.993104 280.22132 -97.168451 279.54858 C -96.322096 278.87584 -95.410974 278.21443 -94.434412 277.56339 C -93.457848 276.91235 -92.557139 276.23935 -91.732486 275.54491 C -90.886131 274.85046 -90.192013 274.13414 -89.649478 273.3963 C -89.085241 272.65845 -88.802846 271.86657 -88.802846 271.02022 C -88.802846 270.52109 -88.900205 270.05462 -89.095518 269.6206 C -89.29083 269.16486 -89.562084 268.77397 -89.909307 268.44845 C -90.234827 268.12293 -90.625726 267.87358 -91.081455 267.69996 C -91.537185 267.50465 -92.025442 267.40693 -92.546275 267.40693 z M 110.93675 267.47199 C 108.6364 267.47199 106.46637 267.96011 104.42643 268.93667 C 102.40821 269.91324 100.63948 271.23706 99.120384 272.90807 C 97.601286 274.57908 96.396626 276.53257 95.506869 278.76782 C 94.638813 281.00306 94.204807 283.37919 94.204807 285.89656 C 94.204807 288.19691 94.704206 290.31261 95.70247 292.24404 C 96.700735 294.17546 98.089702 295.84636 99.869216 297.25695 C 101.67043 298.66754 103.80777 299.77476 106.28173 300.57771 C 108.75569 301.35896 111.45781 301.74936 114.3875 301.74936 C 117.03507 301.74936 119.4875 301.44561 121.74445 300.83797 C 124.0014 300.20863 125.95442 299.35127 127.60373 298.26619 C 129.25304 297.18113 130.54391 295.89004 131.47707 294.39264 C 131.83155 293.81559 132.11921 293.2212 132.33903 292.6097 C 132.48125 294.00036 132.81191 295.31106 133.33237 296.54125 C 134.04851 298.21226 135.04731 299.66605 136.32769 300.90303 C 137.60807 302.11831 139.1271 303.07289 140.88491 303.76734 C 142.64273 304.46178 144.55265 304.80936 146.61428 304.80936 C 148.71932 304.80936 150.71546 304.40788 152.60348 303.60493 C 154.5132 302.82368 156.17342 301.76029 157.58401 300.4148 C 158.9946 299.06931 160.11231 297.50672 160.93697 295.7272 C 161.78332 293.92599 162.20619 292.0269 162.20619 290.03036 C 162.20619 287.99044 161.80488 286.08076 161.00192 284.30124 C 160.22067 282.50003 159.1468 280.93794 157.77961 279.61415 C 156.43413 278.26866 154.83857 277.21585 152.99395 276.4563 C 151.17104 275.67505 149.218 275.28465 147.13467 275.28465 C 145.89769 275.28465 144.60681 275.4257 143.26132 275.70782 C 141.91584 275.98994 140.54843 276.39142 139.15953 276.91225 C 137.79235 277.43308 136.41453 278.07334 135.02563 278.83288 C 133.65845 279.59243 132.33414 280.44929 131.05376 281.40415 C 130.53292 281.81648 130.13162 282.27237 129.8495 282.7715 C 129.74315 282.97533 129.65843 283.17895 129.59551 283.38279 C 129.21149 283.23554 128.80796 283.16188 128.38468 283.16188 C 127.86384 283.16188 127.35403 283.24902 126.8549 283.42263 C 126.37747 283.59624 125.94346 283.83502 125.55284 284.13884 C 125.18391 284.44266 124.8911 284.78973 124.67409 285.18036 C 124.45708 285.57098 124.34857 285.98304 124.34857 286.41707 C 124.34857 286.8728 124.44593 287.25262 124.64125 287.55644 C 124.83656 287.83856 125.05356 288.13173 125.29228 288.43555 C 125.55269 288.71767 125.78084 289.04309 125.97615 289.41201 C 126.17147 289.75923 126.26882 290.20403 126.26882 290.74657 C 126.26882 291.44101 125.97601 292.10292 125.39008 292.73226 C 124.80414 293.3399 124.01194 293.87185 123.01367 294.32758 C 122.01541 294.78331 120.84344 295.15204 119.49795 295.43416 C 118.17417 295.69458 116.76365 295.82505 115.26625 295.82505 C 113.20462 295.82505 111.2947 295.54296 109.53688 294.97872 C 107.80077 294.41449 106.28175 293.63319 104.97967 292.63492 C 103.69928 291.61495 102.69007 290.43218 101.95222 289.08669 C 101.23608 287.7195 100.87861 286.23297 100.87861 284.62707 C 100.87861 283.06457 101.0956 281.59969 101.52964 280.23251 C 101.96366 278.86532 102.56043 277.68254 103.31997 276.68427 C 104.10123 275.66431 105.0012 274.87193 106.02117 274.30769 C 107.06284 273.72175 108.1917 273.42908 109.40697 273.42908 C 109.97121 273.42908 110.41636 273.55904 110.74188 273.81946 C 111.0674 274.07988 111.37062 274.37306 111.65274 274.69858 C 111.93486 275.0024 112.23881 275.28449 112.56433 275.54491 C 112.91155 275.80532 113.3671 275.93529 113.93134 275.93529 C 114.47388 275.93529 114.98442 275.82698 115.46185 275.60997 C 115.96098 275.39296 116.39499 275.11086 116.76391 274.76364 C 117.13284 274.39471 117.42565 273.98266 117.64266 273.52693 C 117.88137 273.0495 118.00102 272.55029 118.00102 272.02946 C 118.00102 271.37842 117.81599 270.78149 117.44706 270.23895 C 117.09984 269.67471 116.61158 269.18659 115.98224 268.77427 C 115.3529 268.36194 114.60453 268.0471 113.73647 267.83009 C 112.89012 267.59138 111.95671 267.47199 110.93675 267.47199 z M 248.01385 273.55921 C 246.69007 273.55921 245.45271 273.75466 244.30254 274.14529 C 243.17406 274.53591 242.18714 275.08902 241.34078 275.80516 C 240.49443 276.49961 239.82114 277.3353 239.322 278.31187 C 238.84457 279.28843 238.60601 280.36241 238.60601 281.53428 C 238.60601 282.94487 239.05116 284.25812 239.94092 285.4734 C 240.83067 286.66697 241.94839 287.79534 243.29388 288.85872 C 244.63936 289.92208 246.08258 290.94216 247.62338 291.91872 C 249.18588 292.89528 250.63951 293.87153 251.985 294.84809 C 253.33049 295.80295 254.4482 296.79079 255.33796 297.81075 C 256.22772 298.80901 256.67286 299.8724 256.67286 301.00088 C 256.67286 302.43317 255.80485 303.14898 254.06874 303.14898 C 253.4177 303.14898 252.79865 303.02959 252.21271 302.79088 C 251.62677 302.55216 251.10582 302.22675 250.65009 301.81442 C 250.21607 301.4238 249.86901 300.96792 249.60859 300.44708 C 249.34818 299.92625 249.21812 299.38372 249.21812 298.81948 C 249.21812 298.49396 249.25078 298.16855 249.31592 297.84303 C 249.40272 297.51751 249.48967 297.21375 249.57647 296.93163 C 249.68498 296.62781 249.78234 296.34572 249.86915 296.0853 C 249.95595 295.80319 249.99979 295.53167 249.99979 295.27125 C 249.99979 294.77212 249.72781 294.34898 249.18527 294.00176 C 248.64274 293.65454 247.91592 293.48125 247.00446 293.48125 C 245.52877 293.48125 244.44375 293.91497 243.74931 294.78302 C 243.07657 295.65108 242.74065 297.04039 242.74065 298.95012 C 242.74065 300.42581 243.02232 301.78187 243.58655 303.01885 C 244.17249 304.25583 244.97584 305.31922 245.9958 306.20898 C 247.01577 307.09874 248.23085 307.79339 249.64143 308.29253 C 251.05203 308.81336 252.5926 309.07379 254.26361 309.07379 C 255.58739 309.07379 256.80246 308.87835 257.90924 308.48772 C 259.016 308.0971 259.97097 307.54348 260.77392 306.82734 C 261.57687 306.11119 262.19592 305.25434 262.62994 304.25607 C 263.06397 303.2578 263.28097 302.15058 263.28097 300.93531 C 263.28097 299.52472 263.02013 298.22306 262.4993 297.02948 C 261.97847 295.81421 261.28434 294.69641 260.41629 293.67644 C 259.56994 292.65647 258.60384 291.71247 257.51876 290.84441 C 256.4337 289.97635 255.31598 289.1734 254.16581 288.43555 C 253.03733 287.6977 251.93077 287.00305 250.84569 286.35201 C 249.76063 285.70096 248.78411 285.08287 247.91605 284.49694 C 247.0697 283.911 246.38599 283.34681 245.86516 282.80428 C 245.34433 282.24004 245.08421 281.68643 245.08421 281.1439 C 245.08421 280.53626 245.30122 280.0698 245.73524 279.74428 C 246.19098 279.39706 246.76618 279.22326 247.46062 279.22326 C 248.524 279.22326 249.51092 279.44038 250.42238 279.8744 C 251.33384 280.30843 252.16988 280.79656 252.92943 281.33909 C 253.71068 281.85992 254.41594 282.33747 255.04528 282.7715 C 255.69633 283.20553 256.28194 283.42263 256.80278 283.42263 C 257.1934 283.42263 257.63855 283.30325 258.13768 283.06453 C 258.65851 282.80412 259.13563 282.48928 259.56966 282.12036 C 260.00369 281.72973 260.37303 281.32825 260.67685 280.91592 C 260.98067 280.4819 261.13228 280.0915 261.13228 279.74428 C 261.13228 279.04983 260.71983 278.33351 259.89517 277.59567 C 259.07052 276.85782 258.01821 276.19591 256.73782 275.60997 C 255.45744 275.00233 254.04692 274.51421 252.50612 274.14529 C 250.96532 273.75466 249.46785 273.55921 248.01385 273.55921 z M -43.002215 274.95883 C -44.369403 274.95883 -45.35633 275.28425 -45.963969 275.93529 C -46.571608 276.56463 -46.875559 277.61744 -46.875559 279.09314 C -46.875559 281.00286 -46.658555 282.91253 -46.224527 284.82226 C -45.790499 286.73198 -45.193741 288.56559 -44.434191 290.3234 C -43.674643 292.05951 -42.785075 293.68709 -41.765109 295.20619 C -40.745143 296.70358 -39.638573 298.00575 -38.444996 299.11252 C -37.251419 300.2193 -36.00365 301.09832 -34.701566 301.74936 C -33.399482 302.3787 -32.096733 302.69354 -30.794649 302.69354 C -29.926593 302.69354 -29.102418 302.59581 -28.321168 302.4005 C -27.539918 302.20518 -26.769265 301.87977 -26.009716 301.42404 C -25.727598 301.25045 -25.477898 301.13107 -25.260884 301.06594 C -25.04387 300.97914 -24.870705 300.93531 -24.740497 300.93531 C -24.501781 300.93531 -24.339029 301.02246 -24.252223 301.19607 C -24.165418 301.34798 -24.121579 301.61899 -24.121579 302.00961 L -24.121579 303.93025 C -24.121579 304.82001 -24.111166 305.85116 -24.089466 307.02303 C -24.067766 308.21661 -24.056622 309.4966 -24.056622 310.8638 C -24.034915 312.25268 -24.002221 313.60925 -23.958821 314.93304 C -23.915416 316.27853 -23.872307 317.53687 -23.828907 318.70874 C -23.785506 319.90232 -23.731256 320.91181 -23.666149 321.73646 C -23.622747 322.3658 -23.43844 322.86501 -23.112919 323.23393 C -22.765697 323.62455 -22.309406 323.8195 -21.745169 323.8195 C -21.094127 323.8195 -20.475814 323.73286 -19.889876 323.55925 C -19.303939 323.40734 -18.794127 323.19023 -18.360099 322.90811 C -17.926071 322.626 -17.579012 322.30058 -17.318595 321.93165 C -17.058178 321.56273 -16.928122 321.17233 -16.928122 320.76001 C -16.928122 320.43448 -16.97123 319.84813 -17.058036 319.00178 C -17.144842 318.15543 -17.242201 317.17918 -17.350708 316.07241 C -17.437514 314.96564 -17.524462 313.80452 -17.611267 312.58924 C -17.698073 311.39566 -17.741911 310.28895 -17.741911 309.26898 L -17.741911 307.70645 C -17.741911 307.22903 -17.730768 306.71874 -17.709068 306.1762 C -17.687361 305.65537 -17.66581 305.05894 -17.64411 304.3862 C -17.600705 303.71345 -17.556866 302.91049 -17.513466 301.97733 C -17.448362 301.04417 -17.372557 299.92637 -17.285751 298.62429 C -17.198946 297.30051 -17.101586 295.73791 -16.993079 293.93669 C -16.949676 293.22055 -16.851586 292.56972 -16.699677 291.98378 L -16.17929 290.16099 C -15.983977 289.53165 -15.821225 288.86974 -15.691017 288.1753 C -15.539107 287.45915 -15.463302 286.62345 -15.463302 285.66859 C -15.463302 284.56181 -15.539107 283.63947 -15.691017 282.90162 C -15.821225 282.14208 -16.04864 281.53457 -16.374162 281.07884 C -16.699682 280.60141 -17.123277 280.26491 -17.64411 280.06959 C -18.164944 279.85258 -18.7944 279.74428 -19.532247 279.74428 C -20.183289 279.74428 -20.725797 279.7876 -21.159825 279.8744 C -21.572152 279.96121 -21.908069 280.12392 -22.168485 280.36263 C -22.428903 280.60135 -22.624352 280.92676 -22.75456 281.33909 C -22.884771 281.75142 -22.971718 282.28337 -23.015118 282.93441 C -23.145327 284.43181 -23.286525 285.92892 -23.438434 287.42631 C -23.568643 288.90201 -23.687556 290.4102 -23.796064 291.951 C -23.839466 292.34162 -23.90486 292.6892 -23.991665 292.99302 C -24.056769 293.29684 -24.197967 293.61117 -24.414981 293.93669 C -25.02262 294.78305 -25.738293 295.44497 -26.562946 295.92239 C -27.3876 296.37813 -28.266755 296.60632 -29.199915 296.60632 C -30.501999 296.60632 -31.738625 296.15043 -32.910501 295.23897 C -34.060675 294.32751 -35.113724 293.02535 -36.068586 291.33264 C -37.001746 289.63993 -37.815509 287.58921 -38.509953 285.18036 C -39.204398 282.7715 -39.746906 280.06945 -40.137531 277.07466 C -40.332844 275.66406 -41.287804 274.95883 -43.002215 274.95883 z M -0.065537299 274.95883 C -1.9101563 274.95883 -3.6142155 275.33865 -5.1767163 276.0982 C -6.7392171 276.83605 -8.0954873 277.87777 -9.2456615 279.22326 C -10.374134 280.54704 -11.263702 282.12022 -11.914744 283.94314 C -12.544084 285.76606 -12.858447 287.76288 -12.858447 289.93302 C -12.858447 291.92955 -12.57678 293.75258 -12.012544 295.40188 C -11.426606 297.05119 -10.612844 298.47224 -9.5711771 299.66581 C -8.5295099 300.83769 -7.2921536 301.74946 -5.8598612 302.4005 C -4.4275687 303.07324 -2.8542954 303.40974 -1.1398848 303.40974 C 0.14049785 303.40974 1.4536593 303.21429 2.7991461 302.82366 C 4.1663343 302.43304 5.4029607 301.93383 6.5097321 301.32619 C 7.6165035 300.69685 8.5172129 300.0022 9.2116577 299.24265 C 9.9278037 298.4831 10.286005 297.74563 10.286005 297.02948 C 10.286005 296.72566 10.20947 296.4219 10.05756 296.11809 C 9.9273517 295.81427 9.7541873 295.54276 9.5371733 295.30404 C 9.3418607 295.04362 9.1137154 294.8376 8.8532986 294.68568 C 8.5928817 294.51208 8.3327699 294.42492 8.0723531 294.42492 C 7.5949223 294.42492 7.1282194 294.58814 6.67249 294.91366 C 6.2167606 295.23918 5.7069489 295.59683 5.1427125 295.98746 C 4.6001775 296.37808 3.9595802 296.73623 3.2217325 297.06176 C 2.5055863 297.38728 1.6375734 297.54999 0.61760758 297.54999 C -1.5308311 297.54999 -3.1799096 296.75812 -4.3300838 295.17391 C -5.4802581 293.56801 -6.0554625 291.24577 -6.0554625 288.20758 C -6.0554625 287.1442 -5.9469609 286.16796 -5.7299469 285.27821 C -5.4912315 284.36675 -5.1657267 283.58545 -4.7534001 282.93441 C -4.3193721 282.26167 -3.7872762 281.7408 -3.1579356 281.37187 C -2.528595 281.00295 -1.8233345 280.81858 -1.0420841 280.81858 C -0.2391323 280.81858 0.44384392 281.01353 1.0080803 281.40415 C 1.5940181 281.77307 2.1149719 282.19621 2.5707013 282.67365 C 3.0481321 283.12937 3.4932806 283.55252 3.9056072 283.94314 C 4.3179339 284.31207 4.7734946 284.49694 5.2726268 284.49694 C 5.7283562 284.49694 6.1623627 284.39921 6.5746893 284.2039 C 6.9870159 283.98689 7.3563593 283.71538 7.6818803 283.38985 C 8.0074013 283.04263 8.2675132 282.65223 8.4628258 282.2182 C 8.6581384 281.76247 8.7554979 281.29601 8.7554979 280.81858 C 8.7554979 280.08073 8.5065281 279.36442 8.0073959 278.66997 C 7.5082637 277.95383 6.8461119 277.32466 6.0214587 276.78212 C 5.2185069 276.21788 4.2851012 275.77258 3.2217325 275.44706 C 2.1583639 275.12154 1.0629355 274.95883 -0.065537299 274.95883 z M 28.742595 276.48908 C 27.201795 276.48908 25.682773 276.73843 24.185376 277.23757 C 22.709681 277.71499 21.320714 278.39857 20.01863 279.28833 C 18.716546 280.15638 17.544583 281.2092 16.502916 282.44618 C 15.461249 283.68316 14.604378 285.0503 13.931634 286.5477 C 13.562711 287.39405 12.922843 287.8172 12.011384 287.8172 L 11.523111 287.8172 C 10.850367 287.8172 10.350968 287.99048 10.025447 288.3377 C 9.7216274 288.68493 9.5150362 289.24912 9.4065292 290.03036 L 9.341572 290.6815 C 9.2981694 290.76831 9.2766149 290.96376 9.2766149 291.26758 C 9.2766149 292.00542 9.4936181 292.56961 9.9276461 292.96024 C 10.361674 293.35086 10.979987 293.54631 11.782939 293.54631 C 12.151863 293.54631 12.412705 293.64404 12.564615 293.83935 C 12.738226 294.01297 12.922532 294.40337 13.117845 295.011 C 13.465068 296.46499 14.050685 297.77824 14.875337 298.95012 C 15.699991 300.10029 16.709201 301.08762 17.902779 301.91227 C 19.118057 302.73692 20.496611 303.36609 22.037411 303.80012 C 23.57821 304.25585 25.227289 304.48354 26.985102 304.48354 C 28.373992 304.48354 29.77337 304.35358 31.183962 304.09316 C 32.594552 303.85444 33.961964 303.49629 35.28575 303.01885 C 36.609536 302.54142 37.878859 301.96615 39.094137 301.29341 C 40.309416 300.59896 41.43827 299.81817 42.479937 298.95012 C 43.130979 298.36418 43.456484 297.74558 43.456484 297.09454 C 43.456484 296.79072 43.380679 296.48697 43.228769 296.18315 C 43.098561 295.85763 42.870416 295.44507 42.544895 294.94594 C 42.197672 294.57701 41.883309 294.306 41.601191 294.13239 C 41.319073 293.95878 41.003981 293.87163 40.656758 293.87163 C 40.049119 293.87163 39.430806 294.14315 38.801465 294.68568 C 37.998513 295.31502 37.140913 295.87921 36.229454 296.37834 C 35.317995 296.85577 34.374177 297.26783 33.397614 297.61505 C 32.442752 297.96228 31.466237 298.2338 30.467973 298.4291 C 29.49141 298.60272 28.53645 298.68936 27.60329 298.68936 C 26.626727 298.68936 25.671767 298.56997 24.738607 298.33126 C 23.827148 298.09254 23.013386 297.77821 22.297239 297.38758 C 21.602795 296.97526 21.038732 296.50829 20.604704 295.98746 C 20.192378 295.46662 19.986517 294.9241 19.986517 294.35986 C 19.986517 293.99094 20.116573 293.69826 20.376989 293.48125 C 20.659108 293.26423 21.017309 293.15543 21.451337 293.15543 L 32.746583 292.01606 C 33.918458 291.90755 34.960366 291.67986 35.871824 291.33264 C 36.804985 290.98541 37.597192 290.54062 38.248234 289.99808 C 38.899276 289.43385 39.397946 288.78252 39.745168 288.04467 C 40.092391 287.30682 40.266285 286.49328 40.266285 285.60352 C 40.266285 284.32314 39.962335 283.12978 39.354696 282.02301 C 38.768758 280.91624 37.954995 279.95007 36.913328 279.12542 C 35.871661 278.30076 34.645447 277.66102 33.234856 277.20529 C 31.845967 276.72786 30.348499 276.48908 28.742595 276.48908 z M 63.150179 276.48908 C 61.60938 276.48908 60.090357 276.73843 58.59296 277.23757 C 57.117265 277.71499 55.728299 278.39857 54.426215 279.28833 C 53.124131 280.15638 51.952167 281.2092 50.9105 282.44618 C 49.868833 283.68316 49.011962 285.0503 48.339219 286.5477 C 47.970295 287.39405 47.329697 287.8172 46.418238 287.8172 L 45.929965 287.8172 C 45.257221 287.8172 44.758552 287.99048 44.433031 288.3377 C 44.129211 288.68493 43.92262 289.24912 43.814114 290.03036 L 43.749156 290.6815 C 43.705756 290.76831 43.684199 290.96376 43.684199 291.26758 C 43.684199 292.00542 43.901202 292.56961 44.33523 292.96024 C 44.769258 293.35086 45.387572 293.54631 46.190524 293.54631 C 46.559448 293.54631 46.820289 293.64404 46.972199 293.83935 C 47.14581 294.01297 47.330117 294.40337 47.525429 295.011 C 47.872652 296.46499 48.458269 297.77824 49.282922 298.95012 C 50.107575 300.10029 51.116786 301.08762 52.310363 301.91227 C 53.525642 302.73692 54.904196 303.36609 56.444995 303.80012 C 57.985795 304.25585 59.634873 304.48354 61.392687 304.48354 C 62.781577 304.48354 64.180955 304.35358 65.591546 304.09316 C 67.002137 303.85444 68.369549 303.49629 69.693335 303.01885 C 71.01712 302.54142 72.286443 301.96615 73.501722 301.29341 C 74.717 300.59896 75.845854 299.81817 76.887522 298.95012 C 77.538564 298.36418 77.864069 297.74558 77.864069 297.09454 C 77.864069 296.79072 77.788263 296.48697 77.636354 296.18315 C 77.506145 295.85763 77.278 295.44507 76.952479 294.94594 C 76.605256 294.57701 76.290894 294.306 76.008776 294.13239 C 75.726657 293.95878 75.411564 293.87163 75.064342 293.87163 C 74.456703 293.87163 73.83839 294.14315 73.209049 294.68568 C 72.406097 295.31502 71.548497 295.87921 70.637038 296.37834 C 69.725579 296.85577 68.781762 297.26783 67.805198 297.61505 C 66.850337 297.96228 65.873822 298.2338 64.875558 298.4291 C 63.898995 298.60272 62.944035 298.68936 62.010874 298.68936 C 61.034312 298.68936 60.079352 298.56997 59.146191 298.33126 C 58.234732 298.09254 57.42097 297.77821 56.704824 297.38758 C 56.010379 296.97526 55.446317 296.50829 55.012289 295.98746 C 54.599962 295.46662 54.394101 294.9241 54.394101 294.35986 C 54.394101 293.99094 54.524157 293.69826 54.784574 293.48125 C 55.066692 293.26423 55.424893 293.15543 55.858921 293.15543 L 67.154167 292.01606 C 68.326043 291.90755 69.36795 291.67986 70.279409 291.33264 C 71.212569 290.98541 72.004777 290.54062 72.655819 289.99808 C 73.306861 289.43385 73.80553 288.78252 74.152753 288.04467 C 74.499975 287.30682 74.67387 286.49328 74.67387 285.60352 C 74.67387 284.32314 74.369919 283.12978 73.76228 282.02301 C 73.176342 280.91624 72.36258 279.95007 71.320913 279.12542 C 70.279246 278.30076 69.053031 277.66102 67.64244 277.20529 C 66.25355 276.72786 64.756082 276.48908 63.150179 276.48908 z M 223.14402 276.48908 C 221.60322 276.48908 220.0842 276.73843 218.5868 277.23757 C 217.1111 277.71499 215.72214 278.39857 214.42006 279.28833 C 213.11797 280.15638 211.94601 281.2092 210.90434 282.44618 C 209.86268 283.68316 209.0058 285.0503 208.33306 286.5477 C 207.96414 287.39405 207.32354 287.8172 206.41208 287.8172 L 205.92381 287.8172 C 205.25107 287.8172 204.75167 287.99048 204.42615 288.3377 C 204.12233 288.68493 203.91646 289.24912 203.80796 290.03036 L 203.743 290.6815 C 203.6996 290.76831 203.67804 290.96376 203.67804 291.26758 C 203.67804 292.00542 203.89505 292.56961 204.32907 292.96024 C 204.7631 293.35086 205.38141 293.54631 206.18437 293.54631 C 206.55329 293.54631 206.8134 293.64404 206.96531 293.83935 C 207.13892 294.01297 207.32396 294.40337 207.51927 295.011 C 207.8665 296.46499 208.45211 297.77824 209.27677 298.95012 C 210.10142 300.10029 211.11063 301.08762 212.30421 301.91227 C 213.51949 302.73692 214.89731 303.36609 216.43811 303.80012 C 217.97891 304.25585 219.62799 304.48354 221.3858 304.48354 C 222.77469 304.48354 224.1748 304.35358 225.58539 304.09316 C 226.99598 303.85444 228.3634 303.49629 229.68718 303.01885 C 231.01097 302.54142 232.28029 301.96615 233.49557 301.29341 C 234.71085 300.59896 235.83897 299.81817 236.88064 298.95012 C 237.53168 298.36418 237.85718 297.74558 237.85718 297.09454 C 237.85718 296.79072 237.78137 296.48697 237.62947 296.18315 C 237.49925 295.85763 237.27184 295.44507 236.94632 294.94594 C 236.5991 294.57701 236.28401 294.306 236.00189 294.13239 C 235.71977 293.95878 235.40541 293.87163 235.05819 293.87163 C 234.45055 293.87163 233.83223 294.14315 233.20289 294.68568 C 232.39994 295.31502 231.54234 295.87921 230.63088 296.37834 C 229.71942 296.85577 228.77561 297.26783 227.79904 297.61505 C 226.84418 297.96228 225.86767 298.2338 224.8694 298.4291 C 223.89284 298.60272 222.93788 298.68936 222.00472 298.68936 C 221.02815 298.68936 220.0732 298.56997 219.14004 298.33126 C 218.22858 298.09254 217.41481 297.77821 216.69867 297.38758 C 216.00422 296.97526 215.44016 296.50829 215.00613 295.98746 C 214.59381 295.46662 214.38722 294.9241 214.38722 294.35986 C 214.38722 293.99094 214.518 293.69826 214.77842 293.48125 C 215.06054 293.26423 215.41801 293.15543 215.85204 293.15543 L 227.14801 292.01606 C 228.31988 291.90755 229.36106 291.67986 230.27252 291.33264 C 231.20568 290.98541 231.99789 290.54062 232.64893 289.99808 C 233.29997 289.43385 233.79938 288.78252 234.1466 288.04467 C 234.49382 287.30682 234.66771 286.49328 234.66771 285.60352 C 234.66771 284.32314 234.36376 283.12978 233.75612 282.02301 C 233.17018 280.91624 232.35642 279.95007 231.31476 279.12542 C 230.27309 278.30076 229.04688 277.66102 227.63628 277.20529 C 226.2474 276.72786 224.74993 276.48908 223.14402 276.48908 z M -62.142679 279.22326 C -61.38313 279.22326 -60.775229 279.44038 -60.319499 279.8744 C -59.86377 280.28673 -59.429764 280.77486 -59.017437 281.33909 C -58.887228 281.5344 -58.822565 281.71877 -58.822565 281.89238 C -58.822565 282.13107 -59.061123 282.2832 -59.538554 282.34833 C -60.146193 282.45684 -60.612896 282.68453 -60.938417 283.03175 C -61.263938 283.35727 -61.622139 283.88922 -62.012764 284.62707 C -64.1178 288.40311 -66.222439 291.23513 -68.327475 293.12315 C -70.432511 295.01117 -72.375128 295.95518 -74.154643 295.95518 C -74.849088 295.95518 -75.402008 295.74914 -75.814335 295.33682 C -76.20496 294.92449 -76.400409 294.34923 -76.400409 293.61138 C -76.400409 292.78672 -76.161852 291.8533 -75.68442 290.81163 C -75.20699 289.76996 -74.577534 288.71765 -73.796284 287.65428 C -73.015033 286.59092 -72.125466 285.56027 -71.127202 284.562 C -70.107236 283.54204 -69.076471 282.64135 -68.034803 281.8601 C -66.971435 281.05715 -65.929528 280.4169 -64.909562 279.93947 C -63.889596 279.46204 -62.967332 279.22326 -62.142679 279.22326 z M 146.32088 281.46922 C 147.64466 281.46922 148.87088 281.70799 149.99935 282.18542 C 151.14952 282.66285 152.13718 283.32476 152.96183 284.17112 C 153.80819 284.99577 154.46961 285.97252 154.94704 287.10099 C 155.42448 288.22947 155.66376 289.44448 155.66376 290.74657 C 155.66376 292.02695 155.39251 293.17749 154.84997 294.19745 C 154.32914 295.21742 153.65584 296.08536 152.83119 296.80151 C 152.02824 297.49595 151.13868 298.0274 150.16211 298.39632 C 149.18555 298.76525 148.24173 298.95012 147.33027 298.95012 C 146.11499 298.95012 144.98614 298.70026 143.94447 298.20113 C 142.9245 297.70199 142.03493 297.01842 141.27539 296.15037 C 140.51583 295.26061 139.91908 294.21887 139.48505 293.0253 C 139.07272 291.81002 138.86686 290.49728 138.86686 289.08669 C 138.86686 286.50422 139.50673 284.59455 140.78711 283.35757 C 142.06749 282.09889 143.91202 281.46922 146.32088 281.46922 z M 28.254321 282.47846 C 28.861961 282.47846 29.437165 282.54344 29.9797 282.67365 C 30.522235 282.80385 31.00008 282.98873 31.412407 283.22744 C 31.824733 283.44446 32.150237 283.69381 32.388953 283.97593 C 32.627669 284.25805 32.746583 284.5618 32.746583 284.88732 C 32.746583 285.25625 32.627669 285.57108 32.388953 285.8315 C 32.150237 286.07018 31.867842 286.22181 31.542321 286.28694 C 30.782772 286.41715 29.893204 286.55819 28.873239 286.71011 C 27.853273 286.86201 26.844062 287.00306 25.845798 287.13327 C 24.847534 287.24178 23.935682 287.33951 23.111029 287.42631 C 22.286375 287.51312 21.689617 287.55644 21.320693 287.55644 C 20.713054 287.55644 20.409833 287.30709 20.409833 286.80795 C 20.409833 286.30883 20.648391 285.80962 21.125821 285.31048 C 21.603252 284.78965 22.221566 284.32319 22.981114 283.91086 C 23.740664 283.47684 24.587122 283.12976 25.520282 282.86934 C 26.453443 282.60893 27.364564 282.47846 28.254321 282.47846 z M 62.661906 282.47846 C 63.269545 282.47846 63.844749 282.54344 64.387284 282.67365 C 64.929819 282.80385 65.407664 282.98873 65.819991 283.22744 C 66.232318 283.44446 66.557822 283.69381 66.796538 283.97593 C 67.035253 284.25805 67.154167 284.5618 67.154167 284.88732 C 67.154167 285.25625 67.035253 285.57108 66.796538 285.8315 C 66.557822 286.07018 66.275427 286.22181 65.949905 286.28694 C 65.190357 286.41715 64.300789 286.55819 63.280823 286.71011 C 62.260857 286.86201 61.251646 287.00306 60.253382 287.13327 C 59.255117 287.24178 58.343266 287.33951 57.518613 287.42631 C 56.69396 287.51312 56.097201 287.55644 55.728277 287.55644 C 55.120638 287.55644 54.816687 287.30709 54.816687 286.80795 C 54.816687 286.30883 55.055975 285.80962 55.533406 285.31048 C 56.010836 284.78965 56.629149 284.32319 57.388699 283.91086 C 58.148248 283.47684 58.994706 283.12976 59.927866 282.86934 C 60.861026 282.60893 61.772148 282.47846 62.661906 282.47846 z M 222.65575 282.47846 C 223.26339 282.47846 223.8386 282.54344 224.38113 282.67365 C 224.92366 282.80385 225.40078 282.98873 225.81311 283.22744 C 226.22543 283.44446 226.55093 283.69381 226.78965 283.97593 C 227.02837 284.25805 227.14801 284.5618 227.14801 284.88732 C 227.14801 285.25625 227.02837 285.57108 226.78965 285.8315 C 226.55093 286.07018 226.26927 286.22181 225.94375 286.28694 C 225.1842 286.41715 224.2939 286.55819 223.27394 286.71011 C 222.25397 286.86201 221.24476 287.00306 220.2465 287.13327 C 219.24824 287.24178 218.33711 287.33951 217.51246 287.42631 C 216.6878 287.51312 216.09105 287.55644 215.72212 287.55644 C 215.11448 287.55644 214.81053 287.30709 214.81053 286.80795 C 214.81053 286.30883 215.04909 285.80962 215.52652 285.31048 C 216.00395 284.78965 216.623 284.32319 217.38254 283.91086 C 218.14209 283.47684 218.98782 283.12976 219.92098 282.86934 C 220.85414 282.60893 221.76599 282.47846 222.65575 282.47846 z M 181.15178 283.09681 C 181.60751 283.09681 182.10691 283.11848 182.64944 283.16188 C 183.21368 283.20528 183.7993 283.27076 184.40694 283.35757 C 185.01458 283.44438 185.63289 283.55268 186.26223 283.68289 C 186.89157 283.7914 187.49947 283.92186 188.08541 284.07377 C 188.34582 284.18228 188.54127 284.33391 188.67148 284.52922 C 188.80169 284.70283 188.86635 284.90885 188.86635 285.14757 C 188.86635 285.47309 188.79054 286.01562 188.63864 286.77517 C 188.48672 287.53472 188.24817 288.39208 187.92265 289.34694 C 187.59713 290.3018 187.17353 291.28913 186.6527 292.3091 C 186.13187 293.30737 185.492 294.22971 184.73245 295.07606 C 183.9946 295.90072 183.13773 296.58429 182.16117 297.12682 C 181.2063 297.66936 180.11014 297.94087 178.87317 297.94087 C 177.94 297.94087 177.08241 297.77817 176.30116 297.45265 C 175.51991 297.12713 174.84734 296.67124 174.28311 296.0853 C 173.74057 295.49937 173.30657 294.79413 172.98105 293.96948 C 172.67723 293.12312 172.52562 292.17912 172.52562 291.13745 C 172.52562 289.96558 172.73148 288.8911 173.1438 287.91454 C 173.55613 286.91627 174.13133 286.05942 174.86918 285.34327 C 175.62873 284.62712 176.53985 284.07352 177.60322 283.68289 C 178.66659 283.29227 179.8497 283.09681 181.15178 283.09681 z "
       transform="matrix(2.6760429,0,0,3.8724187,349.43124,-787.09361)" />
  </g>
</svg>
